<?xml version="1.0" encoding="UTF-8" standalone="no"?>
<svg
   xmlns:dc="http://purl.org/dc/elements/1.1/"
   xmlns:cc="http://creativecommons.org/ns#"
   xmlns:rdf="http://www.w3.org/1999/02/22-rdf-syntax-ns#"
   xmlns:svg="http://www.w3.org/2000/svg"
   xmlns="http://www.w3.org/2000/svg"
   xmlns:xlink="http://www.w3.org/1999/xlink"
   xmlns:sodipodi="http://sodipodi.sourceforge.net/DTD/sodipodi-0.dtd"
   xmlns:inkscape="http://www.inkscape.org/namespaces/inkscape"
   sodipodi:docname="tf_model.svg"
   inkscape:version="0.48.4 r9939"
   id="svg2"
   version="1.1"
   height="420"
   width="1000">
  <sodipodi:namedview
     pagecolor="#ffffff"
     bordercolor="#666666"
     borderopacity="1"
     objecttolerance="10"
     gridtolerance="10"
     guidetolerance="10"
     inkscape:pageopacity="0"
     inkscape:pageshadow="2"
     inkscape:window-width="1366"
     inkscape:window-height="675"
     id="namedview40"
     showgrid="false"
     inkscape:snap-nodes="false"
     inkscape:zoom="1.6864497"
     inkscape:cx="353.69813"
     inkscape:cy="229.83387"
     inkscape:window-x="0"
     inkscape:window-y="30"
     inkscape:window-maximized="1"
     inkscape:current-layer="svg2"
     inkscape:snap-global="false" />
  <metadata
     id="metadata44">
    <rdf:RDF>
      <cc:Work
         rdf:about="">
        <dc:format>image/svg+xml</dc:format>
        <dc:type
           rdf:resource="http://purl.org/dc/dcmitype/StillImage" />
        <dc:title></dc:title>
      </cc:Work>
    </rdf:RDF>
  </metadata>
  <defs
     id="defs42">
    <radialGradient
       cx="491.4762"
       cy="91.648651"
       fx="491.4762"
       fy="91.648651"
       gradientTransform="matrix(1.327847,0.422803,-0.25222,0.496391,-132.0524,-119.5639)"
       gradientUnits="userSpaceOnUse"
       id="radialGradient20697"
       inkscape:collect="always"
       r="100.0051"
       xlink:href="#linearGradient20621" />
    <linearGradient
       id="linearGradient20621">
      <stop
         id="stop20623"
         offset="0.0000000"
         style="stop-color:#c6c6c6;stop-opacity:1.0000000;" />
      <stop
         id="stop20631"
         offset="0.57692307"
         style="stop-color:#393939;stop-opacity:1.0000000;" />
      <stop
         id="stop20625"
         offset="1.0000000"
         style="stop-color:#000000;stop-opacity:1.0000000;" />
    </linearGradient>
    <linearGradient
       gradientTransform="matrix(1.001515,0,0,1.004516,-0.454545,2.715321)"
       gradientUnits="userSpaceOnUse"
       id="linearGradient20699"
       inkscape:collect="always"
       x1="300"
       x2="535.71429"
       xlink:href="#linearGradient16202"
       y1="505.93338"
       y2="505.93338" />
    <linearGradient
       id="linearGradient16202">
      <stop
         id="stop16204"
         offset="0"
         style="stop-color:#000000;stop-opacity:1;" />
      <stop
         id="stop16210"
         offset="0.11779332"
         style="stop-color:#2a2a2a;stop-opacity:1.0000000;" />
      <stop
         id="stop16214"
         offset="0.68058366"
         style="stop-color:#2a2a2a;stop-opacity:1.0000000;" />
      <stop
         id="stop16212"
         offset="0.88943279"
         style="stop-color:#292929;stop-opacity:1.0000000;" />
      <stop
         id="stop16206"
         offset="1.0000000"
         style="stop-color:#b1b1b1;stop-opacity:1.0000000;" />
    </linearGradient>
    <radialGradient
       cx="423.84116"
       cy="326.99408"
       fx="423.84116"
       fy="326.99408"
       gradientTransform="matrix(1.367366,-0.00653879,0.00621049,1.298734,-157.7355,-94.91288)"
       gradientUnits="userSpaceOnUse"
       id="radialGradient20701"
       inkscape:collect="always"
       r="54.285713"
       xlink:href="#linearGradient4245" />
    <linearGradient
       id="linearGradient4245">
      <stop
         id="stop4247"
         offset="0.0000000"
         style="stop-color:#ffb1b1;stop-opacity:1.0000000;" />
      <stop
         id="stop4257"
         offset="0.44168195"
         style="stop-color:#d60000;stop-opacity:1.0000000;" />
      <stop
         id="stop4259"
         offset="0.82026649"
         style="stop-color:#d60000;stop-opacity:1.0000000;" />
      <stop
         id="stop4249"
         offset="1.0000000"
         style="stop-color:#a10000;stop-opacity:1.0000000;" />
    </linearGradient>
    <linearGradient
       gradientUnits="userSpaceOnUse"
       id="linearGradient20703"
       inkscape:collect="always"
       x1="408.57144"
       x2="408.57144"
       xlink:href="#linearGradient3498"
       y1="289.8378"
       y2="400.74866" />
    <linearGradient
       id="linearGradient3498">
      <stop
         id="stop3500"
         offset="0.0000000"
         style="stop-color:#373737;stop-opacity:1.0000000;" />
      <stop
         id="stop3511"
         offset="0.25961539"
         style="stop-color:#363636;stop-opacity:1.0000000;" />
      <stop
         id="stop3508"
         offset="0.51923078"
         style="stop-color:#000000;stop-opacity:1.0000000;" />
      <stop
         id="stop3502"
         offset="1.0000000"
         style="stop-color:#323232;stop-opacity:1.0000000;" />
    </linearGradient>
    <radialGradient
       cx="423.84116"
       cy="326.99408"
       fx="423.84116"
       fy="326.99408"
       gradientTransform="matrix(1.367366,-0.00653879,0.00621049,1.298734,-157.7355,-94.91288)"
       gradientUnits="userSpaceOnUse"
       id="radialGradient20705"
       inkscape:collect="always"
       r="54.285713"
       xlink:href="#linearGradient5011" />
    <linearGradient
       id="linearGradient5011">
      <stop
         id="stop5013"
         offset="0.0000000"
         style="stop-color:#fff2b1;stop-opacity:1.0000000;" />
      <stop
         id="stop5015"
         offset="0.44168195"
         style="stop-color:#d6b000;stop-opacity:1.0000000;" />
      <stop
         id="stop5017"
         offset="0.82026649"
         style="stop-color:#d6b000;stop-opacity:1.0000000;" />
      <stop
         id="stop5019"
         offset="1.0000000"
         style="stop-color:#a18500;stop-opacity:1.0000000;" />
    </linearGradient>
    <linearGradient
       gradientUnits="userSpaceOnUse"
       id="linearGradient20707"
       inkscape:collect="always"
       x1="408.57144"
       x2="408.57144"
       xlink:href="#linearGradient3498"
       y1="289.8378"
       y2="400.74866" />
    <linearGradient
       id="linearGradient3308">
      <stop
         id="stop3310"
         offset="0.0000000"
         style="stop-color:#373737;stop-opacity:1.0000000;" />
      <stop
         id="stop3312"
         offset="0.25961539"
         style="stop-color:#363636;stop-opacity:1.0000000;" />
      <stop
         id="stop3314"
         offset="0.51923078"
         style="stop-color:#000000;stop-opacity:1.0000000;" />
      <stop
         id="stop3316"
         offset="1.0000000"
         style="stop-color:#323232;stop-opacity:1.0000000;" />
    </linearGradient>
    <radialGradient
       cx="423.84116"
       cy="326.99408"
       fx="423.84116"
       fy="326.99408"
       gradientTransform="matrix(1.367366,-0.00653879,0.00621049,1.298734,-157.7355,-94.91288)"
       gradientUnits="userSpaceOnUse"
       id="radialGradient20709"
       inkscape:collect="always"
       r="54.285713"
       xlink:href="#linearGradient5747" />
    <linearGradient
       id="linearGradient5747">
      <stop
         id="stop5749"
         offset="0.0000000"
         style="stop-color:#89ffa2;stop-opacity:1.0000000;" />
      <stop
         id="stop5751"
         offset="0.42590761"
         style="stop-color:#00ae24;stop-opacity:1.0000000;" />
      <stop
         id="stop5753"
         offset="0.82026649"
         style="stop-color:#00ae24;stop-opacity:1.0000000;" />
      <stop
         id="stop5755"
         offset="1.0000000"
         style="stop-color:#007818;stop-opacity:1.0000000;" />
    </linearGradient>
    <linearGradient
       gradientUnits="userSpaceOnUse"
       id="linearGradient20711"
       inkscape:collect="always"
       x1="408.57144"
       x2="408.57144"
       xlink:href="#linearGradient3498"
       y1="289.8378"
       y2="400.74866" />
    <linearGradient
       id="linearGradient3325">
      <stop
         id="stop3327"
         offset="0.0000000"
         style="stop-color:#373737;stop-opacity:1.0000000;" />
      <stop
         id="stop3329"
         offset="0.25961539"
         style="stop-color:#363636;stop-opacity:1.0000000;" />
      <stop
         id="stop3331"
         offset="0.51923078"
         style="stop-color:#000000;stop-opacity:1.0000000;" />
      <stop
         id="stop3333"
         offset="1.0000000"
         style="stop-color:#323232;stop-opacity:1.0000000;" />
    </linearGradient>
    <linearGradient
       gradientTransform="translate(28,0)"
       gradientUnits="userSpaceOnUse"
       id="linearGradient20713"
       inkscape:collect="always"
       x1="623.98987"
       x2="605"
       xlink:href="#linearGradient12453"
       y1="636.46936"
       y2="794.68359" />
    <linearGradient
       id="linearGradient12453">
      <stop
         id="stop12457"
         offset="0.0000000"
         style="stop-color:#929292;stop-opacity:1.0000000;" />
      <stop
         id="stop12459"
         offset="0.61538464"
         style="stop-color:#242424;stop-opacity:1.0000000;" />
      <stop
         id="stop12461"
         offset="1.0000000"
         style="stop-color:#000000;stop-opacity:1.0000000;" />
    </linearGradient>
    <linearGradient
       gradientTransform="translate(28,0)"
       gradientUnits="userSpaceOnUse"
       id="linearGradient20715"
       inkscape:collect="always"
       x1="623.98987"
       x2="605"
       xlink:href="#linearGradient12453"
       y1="636.46936"
       y2="794.68359" />
    <linearGradient
       id="linearGradient3341">
      <stop
         id="stop3343"
         offset="0.0000000"
         style="stop-color:#929292;stop-opacity:1.0000000;" />
      <stop
         id="stop3345"
         offset="0.61538464"
         style="stop-color:#242424;stop-opacity:1.0000000;" />
      <stop
         id="stop3347"
         offset="1.0000000"
         style="stop-color:#000000;stop-opacity:1.0000000;" />
    </linearGradient>
    <linearGradient
       gradientTransform="translate(28,0)"
       gradientUnits="userSpaceOnUse"
       id="linearGradient20717"
       inkscape:collect="always"
       x1="623.98987"
       x2="605"
       xlink:href="#linearGradient12453"
       y1="636.46936"
       y2="794.68359" />
    <linearGradient
       id="linearGradient3350">
      <stop
         id="stop3352"
         offset="0.0000000"
         style="stop-color:#929292;stop-opacity:1.0000000;" />
      <stop
         id="stop3354"
         offset="0.61538464"
         style="stop-color:#242424;stop-opacity:1.0000000;" />
      <stop
         id="stop3356"
         offset="1.0000000"
         style="stop-color:#000000;stop-opacity:1.0000000;" />
    </linearGradient>
    <linearGradient
       gradientTransform="translate(28,0)"
       gradientUnits="userSpaceOnUse"
       id="linearGradient20719"
       inkscape:collect="always"
       x1="623.98987"
       x2="605"
       xlink:href="#linearGradient12453"
       y1="636.46936"
       y2="794.68359" />
    <linearGradient
       id="linearGradient3359">
      <stop
         id="stop3361"
         offset="0.0000000"
         style="stop-color:#929292;stop-opacity:1.0000000;" />
      <stop
         id="stop3363"
         offset="0.61538464"
         style="stop-color:#242424;stop-opacity:1.0000000;" />
      <stop
         id="stop3365"
         offset="1.0000000"
         style="stop-color:#000000;stop-opacity:1.0000000;" />
    </linearGradient>
    <linearGradient
       gradientTransform="translate(28,0)"
       gradientUnits="userSpaceOnUse"
       id="linearGradient20721"
       inkscape:collect="always"
       x1="623.98987"
       x2="605"
       xlink:href="#linearGradient12453"
       y1="636.46936"
       y2="794.68359" />
    <linearGradient
       id="linearGradient3368">
      <stop
         id="stop3370"
         offset="0.0000000"
         style="stop-color:#929292;stop-opacity:1.0000000;" />
      <stop
         id="stop3372"
         offset="0.61538464"
         style="stop-color:#242424;stop-opacity:1.0000000;" />
      <stop
         id="stop3374"
         offset="1.0000000"
         style="stop-color:#000000;stop-opacity:1.0000000;" />
    </linearGradient>
    <linearGradient
       gradientTransform="translate(28,0)"
       gradientUnits="userSpaceOnUse"
       id="linearGradient20723"
       inkscape:collect="always"
       x1="623.98987"
       x2="605"
       xlink:href="#linearGradient12453"
       y1="636.46936"
       y2="794.68359" />
    <linearGradient
       id="linearGradient3377">
      <stop
         id="stop3379"
         offset="0.0000000"
         style="stop-color:#929292;stop-opacity:1.0000000;" />
      <stop
         id="stop3381"
         offset="0.61538464"
         style="stop-color:#242424;stop-opacity:1.0000000;" />
      <stop
         id="stop3383"
         offset="1.0000000"
         style="stop-color:#000000;stop-opacity:1.0000000;" />
    </linearGradient>
    <linearGradient
       gradientTransform="translate(28,0)"
       gradientUnits="userSpaceOnUse"
       id="linearGradient20725"
       inkscape:collect="always"
       x1="573.98987"
       x2="605"
       xlink:href="#linearGradient20572"
       y1="636.46936"
       y2="794.68359" />
    <linearGradient
       id="linearGradient20572">
      <stop
         id="stop20574"
         offset="0.0000000"
         style="stop-color:#929292;stop-opacity:1.0000000;" />
      <stop
         id="stop20576"
         offset="0.61538464"
         style="stop-color:#242424;stop-opacity:1.0000000;" />
      <stop
         id="stop20578"
         offset="1.0000000"
         style="stop-color:#000000;stop-opacity:1.0000000;" />
    </linearGradient>
    <linearGradient
       gradientTransform="translate(28,0)"
       gradientUnits="userSpaceOnUse"
       id="linearGradient20727"
       inkscape:collect="always"
       x1="573.98987"
       x2="605"
       xlink:href="#linearGradient20572"
       y1="636.46936"
       y2="794.68359" />
    <linearGradient
       id="linearGradient3391">
      <stop
         id="stop3393"
         offset="0.0000000"
         style="stop-color:#929292;stop-opacity:1.0000000;" />
      <stop
         id="stop3395"
         offset="0.61538464"
         style="stop-color:#242424;stop-opacity:1.0000000;" />
      <stop
         id="stop3397"
         offset="1.0000000"
         style="stop-color:#000000;stop-opacity:1.0000000;" />
    </linearGradient>
    <linearGradient
       gradientTransform="translate(28,0)"
       gradientUnits="userSpaceOnUse"
       id="linearGradient20729"
       inkscape:collect="always"
       x1="579.70416"
       x2="605"
       xlink:href="#linearGradient20572"
       y1="636.46936"
       y2="794.68359" />
    <linearGradient
       id="linearGradient3400">
      <stop
         id="stop3402"
         offset="0.0000000"
         style="stop-color:#929292;stop-opacity:1.0000000;" />
      <stop
         id="stop3404"
         offset="0.61538464"
         style="stop-color:#242424;stop-opacity:1.0000000;" />
      <stop
         id="stop3406"
         offset="1.0000000"
         style="stop-color:#000000;stop-opacity:1.0000000;" />
    </linearGradient>
    <linearGradient
       gradientTransform="translate(28,0)"
       gradientUnits="userSpaceOnUse"
       id="linearGradient20731"
       inkscape:collect="always"
       x1="579.70416"
       x2="605"
       xlink:href="#linearGradient20572"
       y1="636.46936"
       y2="794.68359" />
    <linearGradient
       id="linearGradient3409">
      <stop
         id="stop3411"
         offset="0.0000000"
         style="stop-color:#929292;stop-opacity:1.0000000;" />
      <stop
         id="stop3413"
         offset="0.61538464"
         style="stop-color:#242424;stop-opacity:1.0000000;" />
      <stop
         id="stop3415"
         offset="1.0000000"
         style="stop-color:#000000;stop-opacity:1.0000000;" />
    </linearGradient>
    <linearGradient
       gradientTransform="translate(28,0)"
       gradientUnits="userSpaceOnUse"
       id="linearGradient20733"
       inkscape:collect="always"
       x1="575.41846"
       x2="605"
       xlink:href="#linearGradient20572"
       y1="636.46936"
       y2="794.68359" />
    <linearGradient
       id="linearGradient3418">
      <stop
         id="stop3420"
         offset="0.0000000"
         style="stop-color:#929292;stop-opacity:1.0000000;" />
      <stop
         id="stop3422"
         offset="0.61538464"
         style="stop-color:#242424;stop-opacity:1.0000000;" />
      <stop
         id="stop3424"
         offset="1.0000000"
         style="stop-color:#000000;stop-opacity:1.0000000;" />
    </linearGradient>
    <linearGradient
       gradientTransform="translate(28,0)"
       gradientUnits="userSpaceOnUse"
       id="linearGradient20735"
       inkscape:collect="always"
       x1="575.41846"
       x2="605"
       xlink:href="#linearGradient20572"
       y1="636.46936"
       y2="794.68359" />
    <linearGradient
       id="linearGradient3427">
      <stop
         id="stop3429"
         offset="0.0000000"
         style="stop-color:#929292;stop-opacity:1.0000000;" />
      <stop
         id="stop3431"
         offset="0.61538464"
         style="stop-color:#242424;stop-opacity:1.0000000;" />
      <stop
         id="stop3433"
         offset="1.0000000"
         style="stop-color:#000000;stop-opacity:1.0000000;" />
    </linearGradient>
  </defs>
  <ellipse
     cx="168.5"
     cy="313.5"
     rx="30"
     ry="30"
     id="ellipse4"
     style="fill:#ffffff;stroke:#0000e3;stroke-width:1.09163189;stroke-opacity:1"
     sodipodi:cx="168.5"
     sodipodi:cy="313.5"
     sodipodi:rx="30"
     sodipodi:ry="30"
     transform="matrix(0.94006179,0,0,0.89267049,479.58171,-70.989062)" />
  <ellipse
     cx="376.5"
     cy="200.5"
     rx="30"
     ry="30"
     id="ellipse8"
     sodipodi:cx="376.5"
     sodipodi:cy="200.5"
     sodipodi:rx="30"
     sodipodi:ry="30"
     transform="matrix(0.94006179,0,0,0.89267049,519.68571,-114.972)"
     style="fill:none;stroke:#0000e3;stroke-width:1.09163189;stroke-opacity:1" />
  <ellipse
     cx="405.5"
     cy="409.5"
     rx="30"
     ry="30"
     id="ellipse12"
     style="fill:none;stroke:#0000e3;stroke-width:1.09163189;stroke-opacity:1"
     sodipodi:cx="405.5"
     sodipodi:cy="409.5"
     sodipodi:rx="30"
     sodipodi:ry="30"
     transform="matrix(0.94006179,0,0,0.89267049,513.42394,7.565941)" />
  <ellipse
     cx="405.5"
     cy="409.5"
     rx="24"
     ry="24"
     id="ellipse16"
     style="fill:none;stroke:#0000e3;stroke-width:1.09163189;stroke-opacity:1"
     sodipodi:cx="405.5"
     sodipodi:cy="409.5"
     sodipodi:rx="24"
     sodipodi:ry="24"
     transform="matrix(0.94006179,0,0,0.89267049,513.42394,7.565941)" />
  <polygon
     points="100.5,251.5 146.331,293.287 "
     id="polygon18"
     style="stroke:#0000e3;stroke-width:1.09163189;stroke-opacity:1"
     transform="matrix(0.94006179,0,0,0.89267049,479.58171,-70.989062)" />
  <polygon
     points="143.788,284.203 137.051,291.592 146.331,293.287 "
     id="polygon20"
     style="fill:#0000e3;fill-opacity:1;stroke-width:1"
     transform="matrix(0.94006179,0,0,0.89267049,479.58171,-70.989062)" />
  <polygon
     points="196.305,324.763 377.695,398.237 "
     id="polygon22"
     style="stroke:#0000e3;stroke-width:0.70938528;stroke-opacity:1"
     transform="matrix(1.1508772,0,0,1.7266599,432.22263,-335.27153)" />
  <polygon
     points="368.403,399.868 377.695,398.237 372.157,390.599 "
     id="polygon24"
     style="fill:#0000e3;fill-opacity:1;stroke-width:1"
     transform="matrix(0.94006179,0,0,0.89267049,519.06431,0.424577)" />
  <path
     d="m 644.66315,234.7729 a 21.15139,20.085086 0 1 1 -24.27428,-5.11322"
     id="path28"
     style="fill:none;stroke:#0000e3;stroke-width:1;stroke-opacity:1"
     inkscape:connector-curvature="0" />
  <text
     style="font-size:20px;font-family:Times New Roman"
     x="21.5"
     y="227.5"
     font-size="20"
     id="text30" />
  <polygon
     points="140.48,338.352 147.105,345.842 149.785,336.797 "
     id="polygon32"
     style="fill:#0000e3;fill-opacity:1;stroke-width:1"
     transform="matrix(0.94006179,0,0,0.89267049,479.58171,-70.989062)" />
  <path
     style="fill:none;stroke:#0000e3;stroke-width:0.98329985px;stroke-linecap:butt;stroke-linejoin:miter;stroke-opacity:1"
     d="m 643.53499,182.46873 c 0,0 53.04248,-73.3767 88.09094,-95.231475 29.17948,-18.195127 109.165,-31.512807 109.165,-31.512807"
     id="path3033"
     inkscape:connector-curvature="0"
     sodipodi:nodetypes="csc" />
  <path
     style="fill:none;stroke:#0000e3;stroke-width:0.95677739px;stroke-linecap:butt;stroke-linejoin:miter;stroke-opacity:1"
     d="m 662.3407,194.11122 c 0,0 75.16871,-17.88531 115.95443,-35.27726 28.70087,-12.23867 85.2219,-70.648082 85.2219,-70.648082"
     id="path3033-5"
     inkscape:connector-curvature="0"
     sodipodi:nodetypes="csc" />
  <polygon
     transform="matrix(-0.47003089,0.77307532,-0.81411739,-0.44633524,968.54387,211.79518)"
     style="fill:#0000e3;fill-opacity:1;stroke-width:1"
     points="146.331,293.287 143.788,284.203 137.051,291.592 "
     id="polygon20-5" />
  <polygon
     transform="matrix(0.80067594,-0.46774676,-0.49257913,-0.7603115,893.50859,382.7752)"
     style="fill:#0000e3;fill-opacity:1;stroke-width:1"
     points="140.48,338.352 147.105,345.842 149.785,336.797 "
     id="polygon32-1" />
  <g
     transform="matrix(0.86184808,0,0,0.70424525,520.40855,152.26297)"
     id="g3148">
    <g
       style="font-style:normal;font-variant:normal;font-weight:normal;font-stretch:normal;letter-spacing:normal;word-spacing:normal;text-anchor:start;fill:none;stroke:#000000;stroke-width:1.09163189;stroke-linecap:butt;stroke-linejoin:miter;stroke-miterlimit:10.43299961;stroke-opacity:1;stroke-dasharray:none;stroke-dashoffset:0"
       id="content"
       transform="matrix(0.85714286,0,0,-0.85714286,-150,600)"
       xml:space="preserve"
       stroke-miterlimit="10.433"
       font-style="normal"
       font-variant="normal"
       font-weight="normal"
       font-stretch="normal"
       font-size-adjust="none"
       letter-spacing="normal"
       word-spacing="normal"><path
         style="fill:#000000;stroke-width:0"
         inkscape:connector-curvature="0"
         d="m 459.91,409.14 -0.02,-0.07 -0.01,-0.08 -0.02,-0.07 -0.01,-0.08 -0.04,-0.16 -0.04,-0.16 -0.03,-0.16 -0.04,-0.16 -0.04,-0.16 -0.04,-0.16 -0.01,-0.08 -0.02,-0.07 -0.02,-0.07 -0.01,-0.07 -0.02,-0.07 -0.01,-0.07 -0.01,-0.06 -0.01,-0.06 -0.01,-0.06 -0.01,-0.05 -0.01,-0.05 -0.01,-0.04 -0.01,-0.04 0,-0.04 0,-0.03 0,-0.02 c 0,-0.89 0.7,-1.35 1.43,-1.35 0.61,0 1.5,0.39 1.85,1.39 0.11,0.21 1.8,6.99 2,7.88 0.39,1.64 1.3,5.12 1.59,6.48 0.21,0.64 1.6,2.99 2.78,4.08 0.41,0.34 1.85,1.64 4,1.64 1.28,0 2.03,-0.59 2.08,-0.59 -1.48,-0.25 -2.58,-1.46 -2.58,-2.74 0,-0.79 0.55,-1.75 1.89,-1.75 1.35,0 2.74,1.14 2.74,2.94 0,1.75 -1.6,3.23 -4.13,3.23 -3.25,0 -5.43,-2.43 -6.39,-3.82 -0.39,2.23 -2.18,3.82 -4.53,3.82 -2.28,0 -3.23,-1.93 -3.69,-2.82 -0.89,-1.71 -1.54,-4.69 -1.54,-4.85 0,-0.5 0.5,-0.5 0.61,-0.5 0.5,0 0.54,0.07 0.84,1.16 0.84,3.53 1.84,5.92 3.64,5.92 0.84,0 1.55,-0.39 1.55,-2.28 0,-1.05 -0.16,-1.61 -0.8,-4.19 z"
         id="path3151" /><path
         style="fill:#000000;stroke-width:0"
         inkscape:connector-curvature="0"
         d="m 488.71,417.71 0.14,0.01 0.16,0 0.17,0 0.17,0 0.19,0.01 0.2,0 0.21,0.01 0.22,0.01 0.22,0.01 0.23,0.01 0.24,0.01 0.25,0.02 0.25,0.02 0.25,0.02 0.53,0.05 0.53,0.07 0.54,0.07 0.55,0.1 0.54,0.11 0.53,0.12 0.27,0.07 0.25,0.08 0.26,0.08 0.25,0.08 0.24,0.09 0.24,0.1 c 3.48,1.5 3.73,4.43 3.73,5.12 0,2.2 -1.89,4.23 -5.33,4.23 v -1.09 c 2.35,0 3.69,-1.44 3.69,-3.14 0,-5.17 -7.97,-5.17 -10.02,-5.17 h -2.04 c 1.95,7.56 7.08,8.31 8.37,8.31 v 1.09 c -5.53,0 -13.04,-4.82 -13.04,-13.54 0,-5.08 2.93,-9.02 7.81,-9.02 7.12,0 11.31,5.28 11.31,5.88 0,0.29 -0.3,0.65 -0.59,0.65 -0.25,0 -0.35,-0.11 -0.66,-0.5 -3.94,-4.93 -9.36,-4.93 -9.95,-4.93 -3.89,0 -4.35,4.18 -4.35,5.78 0,0.59 0.05,2.14 0.8,5.18 z"
         id="path3153" /><path
         style="fill:#000000;stroke-width:0"
         inkscape:connector-curvature="0"
         d="m 528.26,440.23 0,0 0,0.01 0,0 0,0.01 0,0.02 0,0.01 -0.01,0.02 0,0.02 0,0.02 -0.01,0.02 0,0.02 -0.01,0.02 -0.01,0.02 0,0.03 -0.02,0.02 -0.01,0.03 -0.01,0.02 -0.02,0.03 -0.02,0.02 -0.02,0.02 -0.02,0.03 -0.01,0.01 -0.01,0.01 -0.02,0.01 -0.01,0.01 -0.01,0.01 -0.02,0.01 -0.02,0.01 -0.01,0.01 -0.02,0.01 -0.02,0.01 -0.02,0 -0.02,0.01 -0.02,0.01 -0.02,0 -0.02,0.01 -0.02,0.01 -0.02,0 -0.03,0 -0.02,0.01 -0.03,0 -0.03,0 -0.02,0.01 -0.03,0 -0.03,0 c -0.75,0 -5.49,-0.46 -6.33,-0.55 -0.41,-0.05 -0.7,-0.3 -0.7,-0.95 0,-0.6 0.45,-0.6 1.2,-0.6 2.39,0 2.48,-0.34 2.48,-0.84 l -0.14,-1 -3,-11.81 c -0.89,1.84 -2.34,3.18 -4.58,3.18 l 0.05,-1.09 c 3.24,0 3.94,-4.08 3.94,-4.37 0,-0.32 -0.09,-0.61 -0.14,-0.86 l -2.5,-9.77 c -0.25,-0.89 -0.25,-0.98 -1,-1.84 -2.19,-2.74 -4.24,-3.53 -5.63,-3.53 -2.48,0 -3.18,2.73 -3.18,4.68 0,2.49 1.59,8.61 2.73,10.91 1.55,2.94 3.8,4.78 5.78,4.78 l -0.05,1.09 c -5.82,0 -12,-7.31 -12,-14.59 0,-4.69 2.74,-7.97 6.63,-7.97 0.98,0 3.48,0.21 6.47,3.74 0.4,-2.1 2.14,-3.74 4.53,-3.74 1.75,0 2.89,1.14 3.69,2.74 0.84,1.79 1.5,4.84 1.5,4.93 0,0.5 -0.46,0.5 -0.6,0.5 -0.5,0 -0.54,-0.2 -0.7,-0.9 -0.84,-3.24 -1.75,-6.17 -3.78,-6.17 -1.34,0 -1.5,1.29 -1.5,2.29 0,1.19 0.09,1.55 0.3,2.39 z"
         id="path3155" /></g>  </g>
  <g
     id="g5670"
     transform="matrix(0.57838696,0,0,0.64148871,386.80949,127.23187)">
    <g
       word-spacing="normal"
       letter-spacing="normal"
       font-size-adjust="none"
       font-stretch="normal"
       font-weight="normal"
       font-variant="normal"
       font-style="normal"
       stroke-miterlimit="10.433"
       xml:space="preserve"
       transform="matrix(0.85714286,0,0,-0.85714286,-150,600)"
       id="g5672"
       style="font-style:normal;font-variant:normal;font-weight:normal;font-stretch:normal;letter-spacing:normal;word-spacing:normal;text-anchor:start;fill:none;stroke:#000000;stroke-width:1.21850717;stroke-linecap:butt;stroke-linejoin:miter;stroke-miterlimit:10.43299961;stroke-opacity:1;stroke-dasharray:none;stroke-dashoffset:0"><path
         id="path5674"
         d="m 485.91,422.29 0,0.07 0,0.06 0,0.07 0,0.06 0,0.06 -0.01,0.06 0,0.11 -0.01,0.1 -0.01,0.1 -0.01,0.09 -0.01,0.09 -0.02,0.08 -0.02,0.07 -0.02,0.07 -0.03,0.06 -0.03,0.06 -0.03,0.06 -0.04,0.05 -0.04,0.04 -0.05,0.04 -0.05,0.04 -0.05,0.03 -0.06,0.03 -0.06,0.03 -0.07,0.02 -0.08,0.02 -0.08,0.02 -0.08,0.01 -0.1,0.02 -0.09,0.01 -0.11,0 -0.11,0.01 -0.06,0 -0.05,0 -0.07,0 -0.06,0 -0.06,0 -0.07,0 h -24.31 c -0.71,0 -1.64,0 -1.64,-1 0,-0.98 0.93,-0.98 1.64,-0.98 h 23.95 v -9.67 c 0,-0.75 0,-1.64 1,-1.64 1,0 1,0.89 1,1.64 z"
         inkscape:connector-curvature="0"
         style="fill:#000000;stroke-width:0" /><path
         id="path5676"
         d="m 493.15,409.14 -0.02,-0.07 -0.01,-0.08 -0.02,-0.07 -0.02,-0.08 -0.03,-0.16 -0.04,-0.16 -0.04,-0.16 -0.03,-0.16 -0.04,-0.16 -0.04,-0.16 -0.01,-0.08 -0.02,-0.07 -0.02,-0.07 -0.01,-0.07 -0.02,-0.07 -0.01,-0.07 -0.01,-0.06 -0.02,-0.06 -0.01,-0.06 -0.01,-0.05 0,-0.05 -0.01,-0.04 -0.01,-0.04 0,-0.04 0,-0.03 0,-0.02 c 0,-0.89 0.7,-1.35 1.43,-1.35 0.61,0 1.5,0.39 1.85,1.39 0.11,0.21 1.79,6.99 2,7.88 0.39,1.64 1.29,5.12 1.59,6.48 0.2,0.64 1.59,2.99 2.78,4.08 0.41,0.34 1.85,1.64 4,1.64 1.28,0 2.03,-0.59 2.08,-0.59 -1.48,-0.25 -2.58,-1.46 -2.58,-2.74 0,-0.79 0.55,-1.75 1.89,-1.75 1.35,0 2.74,1.14 2.74,2.94 0,1.75 -1.6,3.23 -4.13,3.23 -3.25,0 -5.44,-2.43 -6.39,-3.82 -0.39,2.23 -2.19,3.82 -4.53,3.82 -2.28,0 -3.23,-1.93 -3.69,-2.82 -0.89,-1.71 -1.54,-4.69 -1.54,-4.85 0,-0.5 0.5,-0.5 0.6,-0.5 0.5,0 0.55,0.07 0.85,1.16 0.84,3.53 1.84,5.92 3.64,5.92 0.84,0 1.55,-0.39 1.55,-2.28 0,-1.05 -0.16,-1.61 -0.8,-4.19 z"
         inkscape:connector-curvature="0"
         style="fill:#000000;stroke-width:0" /><path
         id="path5678"
         d="m 521.95,417.71 0.14,0.01 0.16,0 0.16,0 0.18,0 0.19,0.01 0.2,0 0.21,0.01 0.21,0.01 0.23,0.01 0.23,0.01 0.24,0.01 0.25,0.02 0.25,0.02 0.25,0.02 0.52,0.05 0.54,0.07 0.54,0.07 0.55,0.1 0.54,0.11 0.53,0.12 0.26,0.07 0.26,0.08 0.26,0.08 0.24,0.08 0.25,0.09 0.23,0.1 c 3.49,1.5 3.74,4.43 3.74,5.12 0,2.2 -1.89,4.23 -5.33,4.23 v -1.09 c 2.34,0 3.69,-1.44 3.69,-3.14 0,-5.17 -7.97,-5.17 -10.02,-5.17 h -2.05 c 1.96,7.56 7.08,8.31 8.38,8.31 v 1.09 c -5.53,0 -13.05,-4.82 -13.05,-13.54 0,-5.08 2.94,-9.02 7.82,-9.02 7.12,0 11.31,5.28 11.31,5.88 0,0.29 -0.3,0.65 -0.59,0.65 -0.25,0 -0.35,-0.11 -0.66,-0.5 -3.94,-4.93 -9.36,-4.93 -9.96,-4.93 -3.88,0 -4.34,4.18 -4.34,5.78 0,0.59 0.05,2.14 0.8,5.18 z"
         inkscape:connector-curvature="0"
         style="fill:#000000;stroke-width:0" /><path
         id="path5680"
         d="m 561.5,440.23 0,0 0,0.01 0,0 0,0.01 -0.01,0.02 0,0.01 0,0.02 0,0.02 0,0.02 -0.01,0.02 0,0.02 -0.01,0.02 -0.01,0.02 -0.01,0.03 -0.01,0.02 -0.01,0.03 -0.01,0.02 -0.02,0.03 -0.02,0.02 -0.02,0.02 -0.02,0.03 -0.01,0.01 -0.02,0.01 -0.01,0.01 -0.01,0.01 -0.02,0.01 -0.01,0.01 -0.02,0.01 -0.01,0.01 -0.02,0.01 -0.02,0.01 -0.02,0 -0.02,0.01 -0.02,0.01 -0.02,0 -0.02,0.01 -0.02,0.01 -0.03,0 -0.02,0 -0.03,0.01 -0.02,0 -0.03,0 -0.03,0.01 -0.03,0 -0.03,0 c -0.75,0 -5.48,-0.46 -6.32,-0.55 -0.41,-0.05 -0.71,-0.3 -0.71,-0.95 0,-0.6 0.46,-0.6 1.21,-0.6 2.39,0 2.48,-0.34 2.48,-0.84 l -0.14,-1 -3,-11.81 c -0.89,1.84 -2.34,3.18 -4.58,3.18 l 0.05,-1.09 c 3.23,0 3.94,-4.08 3.94,-4.37 0,-0.32 -0.1,-0.61 -0.14,-0.86 l -2.5,-9.77 c -0.25,-0.89 -0.25,-0.98 -1,-1.84 -2.19,-2.74 -4.24,-3.53 -5.63,-3.53 -2.48,0 -3.19,2.73 -3.19,4.68 0,2.49 1.6,8.61 2.74,10.91 1.54,2.94 3.79,4.78 5.78,4.78 l -0.05,1.09 c -5.82,0 -12,-7.31 -12,-14.59 0,-4.69 2.74,-7.97 6.63,-7.97 0.98,0 3.48,0.21 6.47,3.74 0.4,-2.1 2.14,-3.74 4.53,-3.74 1.75,0 2.89,1.14 3.68,2.74 0.85,1.79 1.5,4.84 1.5,4.93 0,0.5 -0.45,0.5 -0.59,0.5 -0.5,0 -0.54,-0.2 -0.7,-0.9 -0.84,-3.24 -1.75,-6.17 -3.78,-6.17 -1.35,0 -1.5,1.29 -1.5,2.29 0,1.19 0.09,1.55 0.29,2.39 z"
         inkscape:connector-curvature="0"
         style="fill:#000000;stroke-width:0" /><path
         id="path5682"
         d="m 607.12,435 -0.04,0.09 -0.04,0.09 -0.04,0.09 -0.05,0.09 -0.02,0.05 -0.03,0.04 -0.02,0.04 -0.03,0.04 -0.03,0.04 -0.03,0.04 -0.02,0.04 -0.04,0.03 -0.03,0.04 -0.03,0.03 -0.04,0.03 -0.03,0.03 -0.04,0.03 -0.04,0.02 -0.04,0.03 -0.04,0.02 -0.05,0.02 -0.05,0.02 -0.04,0.01 -0.05,0.01 -0.06,0.01 -0.05,0.01 -0.06,0 -0.06,0.01 c -0.45,0 -0.79,-0.25 -1.09,-0.96 l -12.41,-28.09 c -0.29,-0.59 -0.29,-0.7 -0.29,-0.84 0,-0.55 0.43,-1 0.98,-1 0.36,0 0.75,0.09 1.09,0.93 l 11.72,26.52 11.71,-26.45 c 0.25,-0.55 0.45,-1 1.09,-1 0.55,0 1,0.45 1,1 0,0.14 0,0.25 -0.3,0.84 z"
         inkscape:connector-curvature="0"
         style="fill:#000000;stroke-width:0" /><path
         id="path5684"
         d="m 664.1,422.29 0,0.07 0,0.06 0,0.07 0,0.06 -0.01,0.06 0,0.06 0,0.11 -0.01,0.1 -0.01,0.1 -0.01,0.09 -0.02,0.09 -0.01,0.08 -0.02,0.07 -0.03,0.07 -0.02,0.06 -0.03,0.06 -0.03,0.06 -0.04,0.05 -0.04,0.04 -0.05,0.04 -0.05,0.04 -0.05,0.03 -0.06,0.03 -0.07,0.03 -0.07,0.02 -0.07,0.02 -0.08,0.02 -0.09,0.01 -0.09,0.02 -0.1,0.01 -0.1,0 -0.11,0.01 -0.06,0 -0.06,0 -0.06,0 -0.06,0 -0.07,0 -0.06,0 h -24.31 c -0.71,0 -1.65,0 -1.65,-1 0,-0.98 0.94,-0.98 1.65,-0.98 h 23.95 v -9.67 c 0,-0.75 0,-1.64 1,-1.64 1,0 1,0.89 1,1.64 z"
         inkscape:connector-curvature="0"
         style="fill:#000000;stroke-width:0" /><path
         id="path5686"
         d="m 691.16,425.18 0.01,0.04 0.01,0.03 0.02,0.06 0.01,0.05 0.02,0.06 0.01,0.05 0.01,0.04 0.01,0.05 0.01,0.04 0.01,0.04 0.01,0.04 0.01,0.04 0.01,0.04 0,0.03 0.01,0.03 0,0.03 0.01,0.03 0,0.03 0.01,0.03 0,0.05 0.01,0.06 0,0.05 0,0.05 0,0.05 0,0.03 0,0.03 0,0.03 0,0.03 c 0,0.91 -0.69,1.35 -1.44,1.35 -0.5,0 -1.29,-0.3 -1.75,-1.05 -0.09,-0.25 -0.5,-1.78 -0.68,-2.69 -0.36,-1.29 -0.71,-2.64 -1,-3.98 l -2.25,-8.97 c -0.19,-0.75 -2.33,-4.23 -5.63,-4.23 -2.53,0 -3.09,2.18 -3.09,4.03 0,2.29 0.86,5.39 2.54,9.76 0.8,2.05 1,2.6 1,3.6 0,2.23 -1.59,4.07 -4.09,4.07 -4.73,0 -6.58,-7.21 -6.58,-7.67 0,-0.5 0.5,-0.5 0.61,-0.5 0.5,0 0.55,0.11 0.8,0.91 1.34,4.69 3.33,6.17 5.03,6.17 0.39,0 1.25,0 1.25,-1.59 0,-1.25 -0.5,-2.53 -0.86,-3.49 -1.98,-5.28 -2.89,-8.12 -2.89,-10.47 0,-4.42 3.14,-5.92 6.08,-5.92 1.95,0 3.64,0.85 5.03,2.24 -0.64,-2.58 -1.23,-5.03 -3.23,-7.68 -1.3,-1.68 -3.19,-3.14 -5.49,-3.14 -0.69,0 -2.94,0.16 -3.78,2.1 0.8,0 1.45,0 2.14,0.61 0.5,0.43 1,1.09 1,2.03 0,1.55 -1.34,1.75 -1.84,1.75 -1.14,0 -2.8,-0.8 -2.8,-3.24 0,-2.5 2.2,-4.34 5.28,-4.34 5.14,0 10.27,4.55 11.67,10.17 z"
         inkscape:connector-curvature="0"
         style="fill:#000000;stroke-width:0" /><path
         id="path5688"
         d="m 702.53,417.71 0.15,0.01 0.15,0 0.17,0 0.18,0 0.19,0.01 0.2,0 0.2,0.01 0.22,0.01 0.22,0.01 0.24,0.01 0.24,0.01 0.24,0.02 0.25,0.02 0.26,0.02 0.52,0.05 0.54,0.07 0.54,0.07 0.54,0.1 0.54,0.11 0.54,0.12 0.26,0.07 0.26,0.08 0.25,0.08 0.25,0.08 0.24,0.09 0.24,0.1 c 3.49,1.5 3.74,4.43 3.74,5.12 0,2.2 -1.9,4.23 -5.33,4.23 v -1.09 c 2.34,0 3.68,-1.44 3.68,-3.14 0,-5.17 -7.97,-5.17 -10.01,-5.17 h -2.05 c 1.96,7.56 7.08,8.31 8.38,8.31 v 1.09 c -5.54,0 -13.05,-4.82 -13.05,-13.54 0,-5.08 2.94,-9.02 7.81,-9.02 7.13,0 11.32,5.28 11.32,5.88 0,0.29 -0.3,0.65 -0.6,0.65 -0.25,0 -0.34,-0.11 -0.65,-0.5 -3.94,-4.93 -9.37,-4.93 -9.96,-4.93 -3.89,0 -4.34,4.18 -4.34,5.78 0,0.59 0.05,2.14 0.8,5.18 z"
         inkscape:connector-curvature="0"
         style="fill:#000000;stroke-width:0" /><path
         id="path5690"
         d="m 729.24,440.23 0,0 0,0.01 0,0 0,0.01 0,0.02 0,0.01 -0.01,0.02 0,0.02 0,0.02 -0.01,0.02 0,0.02 -0.01,0.02 -0.01,0.02 -0.01,0.03 -0.01,0.02 -0.01,0.03 -0.01,0.02 -0.02,0.03 -0.02,0.02 -0.02,0.02 -0.02,0.03 -0.01,0.01 -0.02,0.01 -0.01,0.01 -0.02,0.01 -0.01,0.01 -0.02,0.01 -0.01,0.01 -0.02,0.01 -0.02,0.01 -0.01,0.01 -0.02,0 -0.02,0.01 -0.02,0.01 -0.03,0 -0.02,0.01 -0.02,0.01 -0.03,0 -0.02,0 -0.03,0.01 -0.02,0 -0.03,0 -0.03,0.01 -0.03,0 -0.03,0 c -1.14,0 -4.78,-0.41 -6.08,-0.5 -0.39,-0.05 -0.93,-0.1 -0.93,-1.05 0,-0.55 0.48,-0.55 1.23,-0.55 2.39,0 2.45,-0.45 2.45,-0.84 l -0.15,-1 -6.28,-24.91 c -0.14,-0.54 -0.25,-0.9 -0.25,-1.7 0,-2.83 2.2,-4.58 4.53,-4.58 1.65,0 2.89,1 3.75,2.78 0.89,1.91 1.48,4.8 1.48,4.89 0,0.5 -0.43,0.5 -0.59,0.5 -0.5,0 -0.55,-0.2 -0.71,-0.9 -0.84,-3.24 -1.78,-6.17 -3.78,-6.17 -1.5,0 -1.5,1.59 -1.5,2.29 0,1.19 0.07,1.44 0.3,2.39 z"
         inkscape:connector-curvature="0"
         style="fill:#000000;stroke-width:0" /><path
         id="path5692"
         d="m 745.08,440.23 0,0 0,0.01 0,0 0,0.01 0,0.02 0,0.01 -0.01,0.02 0,0.02 0,0.02 -0.01,0.02 0,0.02 -0.01,0.02 -0.01,0.02 -0.01,0.03 -0.01,0.02 -0.01,0.03 -0.01,0.02 -0.02,0.03 -0.02,0.02 -0.02,0.02 -0.02,0.03 -0.01,0.01 -0.02,0.01 -0.01,0.01 -0.02,0.01 -0.01,0.01 -0.02,0.01 -0.01,0.01 -0.02,0.01 -0.02,0.01 -0.01,0.01 -0.02,0 -0.02,0.01 -0.02,0.01 -0.03,0 -0.02,0.01 -0.02,0.01 -0.03,0 -0.02,0 -0.03,0.01 -0.02,0 -0.03,0 -0.03,0.01 -0.03,0 -0.03,0 c -1.14,0 -4.78,-0.41 -6.08,-0.5 -0.39,-0.05 -0.93,-0.1 -0.93,-1.05 0,-0.55 0.48,-0.55 1.23,-0.55 2.39,0 2.45,-0.45 2.45,-0.84 l -0.15,-1 -6.28,-24.91 c -0.14,-0.54 -0.25,-0.9 -0.25,-1.7 0,-2.83 2.2,-4.58 4.53,-4.58 1.65,0 2.89,1 3.75,2.78 0.89,1.91 1.48,4.8 1.48,4.89 0,0.5 -0.44,0.5 -0.59,0.5 -0.5,0 -0.55,-0.2 -0.7,-0.9 -0.85,-3.24 -1.79,-6.17 -3.79,-6.17 -1.5,0 -1.5,1.59 -1.5,2.29 0,1.19 0.07,1.44 0.3,2.39 z"
         inkscape:connector-curvature="0"
         style="fill:#000000;stroke-width:0" /><path
         id="path5694"
         d="m 771.42,419.79 -0.01,0.48 -0.03,0.47 -0.05,0.46 -0.07,0.44 -0.09,0.44 -0.1,0.42 -0.13,0.4 -0.14,0.4 -0.15,0.38 -0.18,0.36 -0.19,0.36 -0.2,0.34 -0.22,0.32 -0.23,0.31 -0.25,0.3 -0.26,0.28 -0.28,0.26 -0.29,0.25 -0.3,0.24 -0.31,0.22 -0.32,0.2 -0.34,0.19 -0.34,0.17 -0.35,0.15 -0.37,0.13 -0.37,0.12 -0.38,0.1 -0.39,0.09 -0.4,0.06 -0.4,0.05 -0.41,0.03 -0.42,0 -0.05,-1.09 c 2.89,0 4.39,-2.39 4.39,-5.37 0,-1.96 -1,-7.18 -2.89,-10.43 -1.75,-2.89 -4.48,-4.57 -6.78,-4.57 h 0 c -2.14,0 -4.33,1.54 -4.33,5.43 0,2.44 1.3,7.82 2.89,10.36 2.49,3.83 5.33,4.58 6.72,4.58 l 0.05,1.09 c -6.67,0 -13.35,-7.06 -13.35,-14.14 0,-4.93 3.33,-8.42 7.97,-8.42 6.63,0 13.35,6.88 13.35,14.14 z"
         inkscape:connector-curvature="0"
         style="fill:#000000;stroke-width:0" /><path
         id="path5696"
         d="m 795.19,423.09 0.03,0.1 0.02,0.11 0.03,0.12 0.02,0.11 0.03,0.12 0.03,0.12 0.06,0.25 0.07,0.25 0.06,0.25 0.06,0.24 0.06,0.25 0.03,0.11 0.03,0.12 0.02,0.11 0.03,0.11 0.02,0.1 0.03,0.1 0.02,0.1 0.02,0.09 0.02,0.08 0.01,0.08 0.02,0.07 0.01,0.06 0.01,0.06 0.01,0.05 0,0.04 0,0.03 c 0,0.91 -0.7,1.35 -1.45,1.35 -0.59,0 -1.49,-0.39 -1.83,-1.39 -0.16,-0.35 -2.5,-9.86 -2.84,-11.16 -0.36,-1.5 -0.46,-2.39 -0.46,-3.3 0,-0.54 0,-0.64 0.05,-0.89 -1.14,-2.64 -2.64,-4.18 -4.58,-4.18 -3.98,0 -3.98,3.68 -3.98,4.53 0,1.59 0.25,3.54 2.59,9.67 0.55,1.48 0.84,2.19 0.84,3.19 0,2.23 -1.63,4.07 -4.09,4.07 -4.73,0 -6.58,-7.21 -6.58,-7.67 0,-0.5 0.5,-0.5 0.61,-0.5 0.5,0 0.55,0.11 0.8,0.91 1.34,4.62 3.28,6.17 5.03,6.17 0.44,0 1.25,-0.05 1.25,-1.64 0,-1.25 -0.56,-2.64 -0.9,-3.48 -2.19,-5.88 -2.79,-8.18 -2.79,-10.07 0,-4.53 3.33,-6.28 7.07,-6.28 0.85,0 3.18,0 5.18,3.49 1.3,-3.19 4.74,-3.49 6.24,-3.49 3.73,0 5.92,3.14 7.22,6.13 1.68,3.89 3.28,10.56 3.28,12.95 0,2.75 -1.35,3.48 -2.19,3.48 -1.25,0 -2.48,-1.29 -2.48,-2.39 0,-0.64 0.29,-0.93 0.73,-1.34 0.55,-0.55 1.8,-1.84 1.8,-4.23 0,-1.69 -1.44,-6.58 -2.74,-9.11 -1.29,-2.64 -3.04,-4.39 -5.48,-4.39 -2.34,0 -3.69,1.5 -3.69,4.32 0,1.41 0.35,2.96 0.55,3.64 z"
         inkscape:connector-curvature="0"
         style="fill:#000000;stroke-width:0" /></g>  </g>
  <g
     id="g5928"
     transform="matrix(0.71814219,0,0,0.68581491,716.73443,-60.265903)">
    <g
       word-spacing="normal"
       letter-spacing="normal"
       font-size-adjust="none"
       font-stretch="normal"
       font-weight="normal"
       font-variant="normal"
       font-style="normal"
       stroke-miterlimit="10.433"
       xml:space="preserve"
       transform="matrix(0.85714286,0,0,-0.85714286,-150,600)"
       id="g5930"
       style="font-style:normal;font-variant:normal;font-weight:normal;font-stretch:normal;letter-spacing:normal;word-spacing:normal;text-anchor:start;fill:none;stroke:#000000;stroke-width:1.09163189;stroke-linecap:butt;stroke-linejoin:miter;stroke-miterlimit:10.43299961;stroke-opacity:1;stroke-dasharray:none;stroke-dashoffset:0"><path
         id="path5932"
         d="m 479.74,425.18 0.01,0.04 0.01,0.03 0.01,0.06 0.02,0.05 0.01,0.06 0.01,0.05 0.02,0.04 0.01,0.05 0.01,0.04 0.01,0.04 0,0.04 0.01,0.04 0.01,0.04 0.01,0.03 0,0.03 0.01,0.03 0,0.03 0.01,0.03 0,0.03 0.01,0.05 0,0.06 0,0.05 0,0.05 0.01,0.05 0,0.03 0,0.03 0,0.03 0,0.03 c 0,0.91 -0.69,1.35 -1.44,1.35 -0.5,0 -1.3,-0.3 -1.75,-1.05 -0.1,-0.25 -0.5,-1.78 -0.69,-2.69 -0.36,-1.29 -0.7,-2.64 -1,-3.98 l -2.25,-8.97 c -0.19,-0.75 -2.33,-4.23 -5.62,-4.23 -2.54,0 -3.1,2.18 -3.1,4.03 0,2.29 0.86,5.39 2.55,9.76 0.8,2.05 1,2.6 1,3.6 0,2.23 -1.59,4.07 -4.09,4.07 -4.74,0 -6.58,-7.21 -6.58,-7.67 0,-0.5 0.5,-0.5 0.61,-0.5 0.5,0 0.54,0.11 0.79,0.91 1.35,4.69 3.33,6.17 5.03,6.17 0.4,0 1.25,0 1.25,-1.59 0,-1.25 -0.5,-2.53 -0.85,-3.49 -1.99,-5.28 -2.9,-8.12 -2.9,-10.47 0,-4.42 3.15,-5.92 6.08,-5.92 1.96,0 3.64,0.85 5.03,2.24 -0.64,-2.58 -1.23,-5.03 -3.23,-7.68 -1.3,-1.68 -3.19,-3.14 -5.48,-3.14 -0.69,0 -2.94,0.16 -3.79,2.1 0.8,0 1.46,0 2.14,0.61 0.5,0.43 1,1.09 1,2.03 0,1.55 -1.34,1.75 -1.84,1.75 -1.14,0 -2.8,-0.8 -2.8,-3.24 0,-2.5 2.21,-4.34 5.29,-4.34 5.14,0 10.26,4.55 11.67,10.17 z"
         inkscape:connector-curvature="0"
         style="fill:#000000;stroke-width:0" /><path
         id="path5934"
         d="m 491.11,417.71 0.14,0.01 0.16,0 0.16,0 0.18,0 0.19,0.01 0.2,0 0.21,0.01 0.21,0.01 0.23,0.01 0.23,0.01 0.24,0.01 0.25,0.02 0.25,0.02 0.25,0.02 0.52,0.05 0.54,0.07 0.54,0.07 0.55,0.1 0.54,0.11 0.53,0.12 0.26,0.07 0.26,0.08 0.26,0.08 0.24,0.08 0.25,0.09 0.23,0.1 c 3.49,1.5 3.74,4.43 3.74,5.12 0,2.2 -1.89,4.23 -5.33,4.23 v -1.09 c 2.34,0 3.69,-1.44 3.69,-3.14 0,-5.17 -7.97,-5.17 -10.02,-5.17 h -2.04 c 1.95,7.56 7.07,8.31 8.37,8.31 v 1.09 c -5.53,0 -13.05,-4.82 -13.05,-13.54 0,-5.08 2.94,-9.02 7.82,-9.02 7.12,0 11.31,5.28 11.31,5.88 0,0.29 -0.3,0.65 -0.6,0.65 -0.24,0 -0.34,-0.11 -0.65,-0.5 -3.94,-4.93 -9.36,-4.93 -9.95,-4.93 -3.9,0 -4.35,4.18 -4.35,5.78 0,0.59 0.05,2.14 0.8,5.18 z"
         inkscape:connector-curvature="0"
         style="fill:#000000;stroke-width:0" /><path
         id="path5936"
         d="m 517.81,440.23 0,0 0,0.01 0,0 0,0.01 0,0.02 0,0.01 0,0.02 0,0.02 -0.01,0.02 0,0.02 -0.01,0.02 0,0.02 -0.01,0.02 -0.01,0.03 -0.01,0.02 -0.02,0.03 -0.01,0.02 -0.02,0.03 -0.01,0.02 -0.03,0.02 -0.02,0.03 -0.01,0.01 -0.01,0.01 -0.02,0.01 -0.01,0.01 -0.02,0.01 -0.01,0.01 -0.02,0.01 -0.01,0.01 -0.02,0.01 -0.02,0.01 -0.02,0 -0.02,0.01 -0.02,0.01 -0.02,0 -0.02,0.01 -0.03,0.01 -0.02,0 -0.03,0 -0.02,0.01 -0.03,0 -0.03,0 -0.02,0.01 -0.03,0 -0.03,0 c -1.14,0 -4.78,-0.41 -6.08,-0.5 -0.39,-0.05 -0.94,-0.1 -0.94,-1.05 0,-0.55 0.48,-0.55 1.24,-0.55 2.39,0 2.45,-0.45 2.45,-0.84 l -0.16,-1 -6.28,-24.91 c -0.14,-0.54 -0.25,-0.9 -0.25,-1.7 0,-2.83 2.2,-4.58 4.53,-4.58 1.66,0 2.89,1 3.75,2.78 0.89,1.91 1.49,4.8 1.49,4.89 0,0.5 -0.44,0.5 -0.6,0.5 -0.5,0 -0.54,-0.2 -0.7,-0.9 -0.84,-3.24 -1.78,-6.17 -3.78,-6.17 -1.5,0 -1.5,1.59 -1.5,2.29 0,1.19 0.06,1.44 0.29,2.39 z"
         inkscape:connector-curvature="0"
         style="fill:#000000;stroke-width:0" /><path
         id="path5938"
         d="m 533.65,440.23 0,0 0,0.01 0,0 0,0.01 0,0.02 0,0.01 0,0.02 0,0.02 -0.01,0.02 0,0.02 -0.01,0.02 0,0.02 -0.01,0.02 -0.01,0.03 -0.01,0.02 -0.02,0.03 -0.01,0.02 -0.02,0.03 -0.01,0.02 -0.03,0.02 -0.02,0.03 -0.01,0.01 -0.01,0.01 -0.02,0.01 -0.01,0.01 -0.02,0.01 -0.01,0.01 -0.02,0.01 -0.01,0.01 -0.02,0.01 -0.02,0.01 -0.02,0 -0.02,0.01 -0.02,0.01 -0.02,0 -0.02,0.01 -0.03,0.01 -0.02,0 -0.03,0 -0.02,0.01 -0.03,0 -0.03,0 -0.02,0.01 -0.03,0 -0.03,0 c -1.15,0 -4.78,-0.41 -6.08,-0.5 -0.39,-0.05 -0.94,-0.1 -0.94,-1.05 0,-0.55 0.49,-0.55 1.24,-0.55 2.38,0 2.45,-0.45 2.45,-0.84 l -0.16,-1 -6.28,-24.91 c -0.14,-0.54 -0.25,-0.9 -0.25,-1.7 0,-2.83 2.2,-4.58 4.53,-4.58 1.66,0 2.89,1 3.75,2.78 0.89,1.91 1.49,4.8 1.49,4.89 0,0.5 -0.44,0.5 -0.6,0.5 -0.5,0 -0.55,-0.2 -0.7,-0.9 -0.85,-3.24 -1.78,-6.17 -3.78,-6.17 -1.5,0 -1.5,1.59 -1.5,2.29 0,1.19 0.06,1.44 0.3,2.39 z"
         inkscape:connector-curvature="0"
         style="fill:#000000;stroke-width:0" /><path
         id="path5940"
         d="m 559.99,419.79 -0.01,0.48 -0.03,0.47 -0.05,0.46 -0.07,0.44 -0.09,0.44 -0.1,0.42 -0.13,0.4 -0.14,0.4 -0.15,0.38 -0.18,0.36 -0.19,0.36 -0.2,0.34 -0.22,0.32 -0.23,0.31 -0.25,0.3 -0.26,0.28 -0.28,0.26 -0.29,0.25 -0.3,0.24 -0.31,0.22 -0.32,0.2 -0.34,0.19 -0.34,0.17 -0.35,0.15 -0.37,0.13 -0.37,0.12 -0.38,0.1 -0.39,0.09 -0.4,0.06 -0.4,0.05 -0.41,0.03 -0.42,0 c -6.67,0 -13.34,-7.06 -13.34,-14.14 0,-4.93 3.32,-8.42 7.97,-8.42 l 0.04,1.1 c -2.14,0 -4.33,1.54 -4.33,5.43 0,2.44 1.3,7.82 2.89,10.36 2.49,3.83 5.33,4.58 6.72,4.58 2.89,0 4.39,-2.39 4.39,-5.37 0,-1.96 -1,-7.18 -2.89,-10.43 -1.75,-2.89 -4.48,-4.57 -6.78,-4.57 h 0 l -0.04,-1.1 c 6.62,0 13.34,6.88 13.34,14.14 z"
         inkscape:connector-curvature="0"
         style="fill:#000000;stroke-width:0" /><path
         id="path5942"
         d="m 583.76,423.09 0.03,0.1 0.02,0.11 0.03,0.12 0.03,0.11 0.02,0.12 0.03,0.12 0.06,0.25 0.07,0.25 0.06,0.25 0.06,0.24 0.06,0.25 0.03,0.11 0.03,0.12 0.02,0.11 0.03,0.11 0.03,0.1 0.02,0.1 0.02,0.1 0.02,0.09 0.02,0.08 0.01,0.08 0.02,0.07 0.01,0.06 0.01,0.06 0.01,0.05 0,0.04 0,0.03 c 0,0.91 -0.7,1.35 -1.45,1.35 -0.59,0 -1.49,-0.39 -1.83,-1.39 -0.16,-0.35 -2.5,-9.86 -2.84,-11.16 -0.36,-1.5 -0.46,-2.39 -0.46,-3.3 0,-0.54 0,-0.64 0.05,-0.89 -1.14,-2.64 -2.64,-4.18 -4.58,-4.18 -3.98,0 -3.98,3.68 -3.98,4.53 0,1.59 0.25,3.54 2.59,9.67 0.55,1.48 0.84,2.19 0.84,3.19 0,2.23 -1.63,4.07 -4.09,4.07 -4.73,0 -6.58,-7.21 -6.58,-7.67 0,-0.5 0.5,-0.5 0.61,-0.5 0.5,0 0.55,0.11 0.8,0.91 1.34,4.62 3.28,6.17 5.03,6.17 0.44,0 1.25,-0.05 1.25,-1.64 0,-1.25 -0.56,-2.64 -0.9,-3.48 -2.19,-5.88 -2.79,-8.18 -2.79,-10.07 0,-4.53 3.33,-6.28 7.07,-6.28 0.85,0 3.18,0 5.18,3.49 1.3,-3.19 4.74,-3.49 6.24,-3.49 3.73,0 5.92,3.14 7.22,6.13 1.68,3.89 3.28,10.56 3.28,12.95 0,2.75 -1.35,3.48 -2.19,3.48 -1.25,0 -2.48,-1.29 -2.48,-2.39 0,-0.64 0.29,-0.93 0.73,-1.34 0.55,-0.55 1.8,-1.84 1.8,-4.23 0,-1.69 -1.44,-6.58 -2.74,-9.11 -1.29,-2.64 -3.04,-4.39 -5.48,-4.39 -2.34,0 -3.69,1.5 -3.69,4.32 0,1.41 0.35,2.96 0.55,3.64 z"
         inkscape:connector-curvature="0"
         style="fill:#000000;stroke-width:0" /></g>  </g>
  <path
     style="fill:none;stroke:#0000e3;stroke-width:0.96842599;stroke-opacity:0.67142855"
     inkscape:connector-curvature="0"
     d="m 900.33259,58.2109 c 3.24725,-2.670923 11.35213,-5.256146 15.66748,-5.642083 4.31536,-0.385937 8.75417,0.529639 12.48907,2.576077 3.7349,2.046429 6.74685,5.213276 8.47467,8.910378 1.72782,3.697093 2.16275,7.905588 1.22389,11.84123 -0.93885,3.935641 -3.24671,7.57837 -6.49364,10.249303 -3.24691,2.670932 -7.4164,4.356446 -11.73154,4.742356 -4.31514,0.38592 -8.75393,-0.529719 -12.48903,-2.576255 -3.73509,-2.046537 -5.08789,-4.646154 -6.81602,-8.343372"
     id="path28-2"
     sodipodi:nodetypes="csssssssc" />
  <polygon
     transform="matrix(0.16324,-0.87910883,0.92578015,0.15501059,562.28798,156.18617)"
     style="fill:#0000e3;fill-opacity:1;stroke-width:1"
     points="147.105,345.842 149.785,336.797 140.48,338.352 "
     id="polygon32-7" />
  <g
     transform="matrix(0.94006179,0,0,0.89267049,659.38845,156.86887)"
     id="g6859">
    <g
       style="font-style:normal;font-variant:normal;font-weight:normal;font-stretch:normal;letter-spacing:normal;word-spacing:normal;text-anchor:start;fill:none;stroke:#000000;stroke-width:1.09163189;stroke-linecap:butt;stroke-linejoin:miter;stroke-miterlimit:10.43299961;stroke-opacity:1;stroke-dasharray:none;stroke-dashoffset:0"
       id="g6861"
       transform="matrix(0.85714286,0,0,-0.85714286,-150,600)"
       xml:space="preserve"
       stroke-miterlimit="10.433"
       font-style="normal"
       font-variant="normal"
       font-weight="normal"
       font-stretch="normal"
       font-size-adjust="none"
       letter-spacing="normal"
       word-spacing="normal"><path
         style="fill:#000000;stroke-width:0"
         inkscape:connector-curvature="0"
         d="m 459.91,409.14 -0.02,-0.07 -0.01,-0.08 -0.02,-0.07 -0.01,-0.08 -0.04,-0.16 -0.04,-0.16 -0.03,-0.16 -0.04,-0.16 -0.04,-0.16 -0.04,-0.16 -0.01,-0.08 -0.02,-0.07 -0.02,-0.07 -0.01,-0.07 -0.02,-0.07 -0.01,-0.07 -0.01,-0.06 -0.01,-0.06 -0.01,-0.06 -0.01,-0.05 -0.01,-0.05 -0.01,-0.04 -0.01,-0.04 0,-0.04 0,-0.03 0,-0.02 c 0,-0.89 0.7,-1.35 1.43,-1.35 0.61,0 1.5,0.39 1.85,1.39 0.11,0.21 1.8,6.99 2,7.88 0.39,1.64 1.3,5.12 1.59,6.48 0.21,0.64 1.6,2.99 2.78,4.08 0.41,0.34 1.85,1.64 4,1.64 1.28,0 2.03,-0.59 2.08,-0.59 -1.48,-0.25 -2.58,-1.46 -2.58,-2.74 0,-0.79 0.55,-1.75 1.89,-1.75 1.35,0 2.74,1.14 2.74,2.94 0,1.75 -1.6,3.23 -4.13,3.23 -3.25,0 -5.43,-2.43 -6.39,-3.82 -0.39,2.23 -2.18,3.82 -4.53,3.82 -2.28,0 -3.23,-1.93 -3.69,-2.82 -0.89,-1.71 -1.54,-4.69 -1.54,-4.85 0,-0.5 0.5,-0.5 0.61,-0.5 0.5,0 0.54,0.07 0.84,1.16 0.84,3.53 1.84,5.92 3.64,5.92 0.84,0 1.55,-0.39 1.55,-2.28 0,-1.05 -0.16,-1.61 -0.8,-4.19 z"
         id="path6863" /></g>  </g>
  <g
     inkscape:transform-center-y="-24.964514"
     inkscape:transform-center-x="-27.484857"
     transform="matrix(0.94006179,0,0,0.89267049,401.22199,-11.815596)"
     id="g6968">
    <g
       style="font-style:normal;font-variant:normal;font-weight:normal;font-stretch:normal;letter-spacing:normal;word-spacing:normal;text-anchor:start;fill:none;stroke:#000000;stroke-width:1.09163189;stroke-linecap:butt;stroke-linejoin:miter;stroke-miterlimit:10.43299961;stroke-opacity:1;stroke-dasharray:none;stroke-dashoffset:0"
       word-spacing="normal"
       letter-spacing="normal"
       font-size-adjust="none"
       font-stretch="normal"
       font-weight="normal"
       font-variant="normal"
       font-style="normal"
       stroke-miterlimit="10.433"
       xml:space="preserve"
       transform="matrix(0.85714286,0,0,-0.85714286,-150,600)"
       id="g6970"><path
         style="fill:#000000;stroke-width:0"
         inkscape:connector-curvature="0"
         id="path6972"
         d="m 457.75,400.12 -0.03,-0.15 -0.04,-0.15 -0.03,-0.14 -0.03,-0.13 -0.04,-0.13 -0.03,-0.11 -0.04,-0.12 -0.03,-0.1 -0.04,-0.1 -0.04,-0.09 -0.04,-0.09 -0.05,-0.08 -0.05,-0.07 -0.05,-0.07 -0.06,-0.07 -0.06,-0.06 -0.07,-0.05 -0.07,-0.05 -0.08,-0.04 -0.09,-0.04 -0.09,-0.04 -0.1,-0.03 -0.11,-0.03 -0.12,-0.02 -0.13,-0.02 -0.06,-0.01 -0.07,-0.01 -0.07,-0.01 -0.08,-0.01 -0.07,0 -0.08,-0.01 -0.08,0 -0.09,-0.01 -0.08,0 -0.09,0 -0.1,0 -0.09,0 -0.1,-0.01 -0.1,0 c -0.6,0 -1.14,0 -1.14,-0.93 0,-0.41 0.25,-0.61 0.64,-0.61 1.36,0 2.79,0.15 4.18,0.15 1.64,0 3.35,-0.15 4.94,-0.15 0.25,0 0.89,0 0.89,1 0,0.54 -0.5,0.54 -1.19,0.54 -2.5,0 -2.5,0.36 -2.5,0.8 0,0.61 2.1,8.72 2.46,9.97 0.64,-1.44 2.03,-3.19 4.58,-3.19 l -0.05,1.1 c -3.3,0 -3.94,4.14 -3.94,4.43 0,0.1 0,0.21 0.14,0.8 l 2.46,9.77 c 0.34,1.34 1.68,2.73 2.57,3.48 1.75,1.55 3.21,1.89 4.05,1.89 1.98,0 3.19,-1.73 3.19,-4.69 0,-2.93 -1.64,-8.65 -2.55,-10.56 -1.69,-3.48 -4.08,-5.12 -5.92,-5.12 l 0.05,-1.1 c 5.78,0 12,7.27 12,14.6 0,4.68 -2.83,7.96 -6.63,7.96 -2.48,0 -4.87,-1.78 -6.51,-3.73 -0.5,2.69 -2.65,3.73 -4.49,3.73 -2.3,0 -3.25,-1.93 -3.69,-2.82 -0.9,-1.71 -1.54,-4.69 -1.54,-4.85 0,-0.5 0.5,-0.5 0.59,-0.5 0.5,0 0.55,0.07 0.84,1.16 0.86,3.53 1.85,5.92 3.64,5.92 0.85,0 1.55,-0.39 1.55,-2.28 0,-1.16 -0.15,-1.7 -0.34,-2.55 z" /></g>  </g>
  <g
     transform="matrix(0.94006179,0,0,0.89267049,638.16535,-160.04429)"
     id="g7082">
    <g
       style="font-style:normal;font-variant:normal;font-weight:normal;font-stretch:normal;letter-spacing:normal;word-spacing:normal;text-anchor:start;fill:none;stroke:#000000;stroke-width:1.09163189;stroke-linecap:butt;stroke-linejoin:miter;stroke-miterlimit:10.43299961;stroke-opacity:1;stroke-dasharray:none;stroke-dashoffset:0"
       id="g7084"
       transform="matrix(0.85714286,0,0,-0.85714286,-150,600)"
       xml:space="preserve"
       stroke-miterlimit="10.433"
       font-style="normal"
       font-variant="normal"
       font-weight="normal"
       font-stretch="normal"
       font-size-adjust="none"
       letter-spacing="normal"
       word-spacing="normal"><path
         style="fill:#000000;stroke-width:0"
         inkscape:connector-curvature="0"
         d="m 478.04,427.67 -0.01,0.02 0,0.02 0,0.02 0,0.02 -0.01,0.02 0,0.02 -0.01,0.02 0,0.02 -0.01,0.02 -0.01,0.02 -0.01,0.02 -0.01,0.03 -0.01,0.02 -0.01,0.02 -0.02,0.02 -0.01,0.01 -0.02,0.02 -0.01,0.02 -0.02,0.02 -0.02,0.01 -0.02,0.02 -0.02,0.01 -0.02,0.02 -0.03,0.01 -0.02,0.01 -0.03,0.01 -0.02,0.01 -0.03,0 -0.03,0.01 -0.03,0 -0.03,0.01 -0.02,0 -0.01,0 c -0.55,0 -2.54,-1.99 -3.38,-3.44 -1.11,2.69 -3.05,3.48 -4.64,3.48 v -1.09 c 3.23,0 3.94,-4.03 3.94,-4.37 0,-0.32 -2.74,-11.22 -2.89,-11.43 -0.75,-1.39 -3.53,-4.57 -6.33,-4.57 h 0 c -2.99,0 -3.19,3.84 -3.19,4.68 0,2.39 1.44,7.82 2.3,9.91 1.53,3.69 4.12,5.78 6.17,5.78 v 1.09 c -5.88,0 -12,-7.37 -12,-14.59 0,-4.87 2.94,-7.97 6.56,-7.97 2.16,0 4.1,1.19 5.89,2.99 -0.45,-1.74 -2.09,-8.47 -2.25,-8.93 -0.39,-1.39 -0.79,-1.59 -3.58,-1.64 -0.65,0 -1.15,0 -1.15,-1 0,-0.04 0,-0.54 0.65,-0.54 1.6,0 3.33,0.15 4.99,0.15 1.69,0 3.48,-0.15 5.12,-0.15 0.25,0 0.89,0 0.89,1 0,0.54 -0.48,0.54 -1.28,0.54 -2.4,0 -2.4,0.36 -2.4,0.8 0,0.36 0.11,0.66 0.2,1.09 z"
         id="path7086" /></g>  </g>
  <g
     transform="matrix(0.70236044,0,0,0.65626411,608.03416,16.367011)"
     id="g7349">
    <g
       style="font-style:normal;font-variant:normal;font-weight:normal;font-stretch:normal;letter-spacing:normal;word-spacing:normal;text-anchor:start;fill:none;stroke:#000000;stroke-width:1.09163189;stroke-linecap:butt;stroke-linejoin:miter;stroke-miterlimit:10.43299961;stroke-opacity:1;stroke-dasharray:none;stroke-dashoffset:0"
       id="g7351"
       transform="matrix(0.85714286,0,0,-0.85714286,-150,600)"
       xml:space="preserve"
       stroke-miterlimit="10.433"
       font-style="normal"
       font-variant="normal"
       font-weight="normal"
       font-stretch="normal"
       font-size-adjust="none"
       letter-spacing="normal"
       word-spacing="normal"><path
         style="fill:#000000;stroke-width:0"
         inkscape:connector-curvature="0"
         d="m 485.91,422.29 0,0.07 0,0.06 0,0.07 0,0.06 0,0.06 -0.01,0.06 0,0.11 -0.01,0.1 -0.01,0.1 -0.01,0.09 -0.01,0.09 -0.02,0.08 -0.02,0.07 -0.02,0.07 -0.03,0.06 -0.03,0.06 -0.03,0.06 -0.04,0.05 -0.04,0.04 -0.05,0.04 -0.05,0.04 -0.05,0.03 -0.06,0.03 -0.06,0.03 -0.07,0.02 -0.08,0.02 -0.08,0.02 -0.08,0.01 -0.1,0.02 -0.09,0.01 -0.11,0 -0.11,0.01 -0.06,0 -0.05,0 -0.07,0 -0.06,0 -0.06,0 -0.07,0 h -24.31 c -0.71,0 -1.64,0 -1.64,-1 0,-0.98 0.93,-0.98 1.64,-0.98 h 23.95 v -9.67 c 0,-0.75 0,-1.64 1,-1.64 1,0 1,0.89 1,1.64 z"
         id="path7353" /><path
         style="fill:#000000;stroke-width:0"
         inkscape:connector-curvature="0"
         d="m 512.98,425.18 0.01,0.04 0,0.03 0.02,0.06 0.01,0.05 0.02,0.06 0.01,0.05 0.01,0.04 0.01,0.05 0.02,0.04 0,0.04 0.01,0.04 0.01,0.04 0.01,0.04 0,0.03 0.01,0.03 0.01,0.03 0,0.03 0,0.03 0.01,0.03 0,0.05 0.01,0.06 0,0.05 0,0.05 0,0.05 0,0.03 0,0.03 0,0.03 0,0.03 c 0,0.91 -0.68,1.35 -1.43,1.35 -0.5,0 -1.3,-0.3 -1.75,-1.05 -0.1,-0.25 -0.5,-1.78 -0.69,-2.69 -0.36,-1.29 -0.7,-2.64 -1,-3.98 l -2.25,-8.97 c -0.19,-0.75 -2.33,-4.23 -5.63,-4.23 -2.53,0 -3.09,2.18 -3.09,4.03 0,2.29 0.86,5.39 2.55,9.76 0.79,2.05 1,2.6 1,3.6 0,2.23 -1.6,4.07 -4.1,4.07 -4.73,0 -6.57,-7.21 -6.57,-7.67 0,-0.5 0.5,-0.5 0.6,-0.5 0.5,0 0.55,0.11 0.8,0.91 1.35,4.69 3.33,6.17 5.03,6.17 0.39,0 1.25,0 1.25,-1.59 0,-1.25 -0.5,-2.53 -0.86,-3.49 -1.98,-5.28 -2.89,-8.12 -2.89,-10.47 0,-4.42 3.14,-5.92 6.08,-5.92 1.95,0 3.64,0.85 5.03,2.24 -0.64,-2.58 -1.23,-5.03 -3.23,-7.68 -1.3,-1.68 -3.19,-3.14 -5.49,-3.14 -0.68,0 -2.93,0.16 -3.78,2.1 0.8,0 1.46,0 2.14,0.61 0.5,0.43 1,1.09 1,2.03 0,1.55 -1.34,1.75 -1.84,1.75 -1.14,0 -2.8,-0.8 -2.8,-3.24 0,-2.5 2.21,-4.34 5.28,-4.34 5.14,0 10.27,4.55 11.68,10.17 z"
         id="path7355" /><path
         style="fill:#000000;stroke-width:0"
         inkscape:connector-curvature="0"
         d="m 524.35,417.71 0.14,0.01 0.16,0 0.16,0 0.18,0 0.19,0.01 0.2,0 0.21,0.01 0.21,0.01 0.23,0.01 0.23,0.01 0.24,0.01 0.24,0.02 0.25,0.02 0.26,0.02 0.52,0.05 0.54,0.07 0.54,0.07 0.55,0.1 0.54,0.11 0.53,0.12 0.26,0.07 0.26,0.08 0.26,0.08 0.24,0.08 0.25,0.09 0.23,0.1 c 3.49,1.5 3.74,4.43 3.74,5.12 0,2.2 -1.89,4.23 -5.33,4.23 v -1.09 c 2.34,0 3.69,-1.44 3.69,-3.14 0,-5.17 -7.97,-5.17 -10.02,-5.17 H 522 c 1.96,7.56 7.08,8.31 8.38,8.31 v 1.09 c -5.53,0 -13.05,-4.82 -13.05,-13.54 0,-5.08 2.94,-9.02 7.82,-9.02 7.12,0 11.31,5.28 11.31,5.88 0,0.29 -0.3,0.65 -0.6,0.65 -0.25,0 -0.34,-0.11 -0.65,-0.5 -3.94,-4.93 -9.36,-4.93 -9.96,-4.93 -3.89,0 -4.34,4.18 -4.34,5.78 0,0.59 0.05,2.14 0.8,5.18 z"
         id="path7357" /><path
         style="fill:#000000;stroke-width:0"
         inkscape:connector-curvature="0"
         d="m 551.05,440.23 0,0 0,0.01 0,0 0,0.01 0,0.02 0,0.01 0,0.02 -0.01,0.02 0,0.02 0,0.02 -0.01,0.02 -0.01,0.02 0,0.02 -0.01,0.03 -0.01,0.02 -0.02,0.03 -0.01,0.02 -0.02,0.03 -0.02,0.02 -0.02,0.02 -0.02,0.03 -0.01,0.01 -0.01,0.01 -0.02,0.01 -0.01,0.01 -0.02,0.01 -0.01,0.01 -0.02,0.01 -0.02,0.01 -0.01,0.01 -0.02,0.01 -0.02,0 -0.02,0.01 -0.02,0.01 -0.02,0 -0.03,0.01 -0.02,0.01 -0.02,0 -0.03,0 -0.02,0.01 -0.03,0 -0.03,0 -0.03,0.01 -0.02,0 -0.03,0 c -1.15,0 -4.79,-0.41 -6.08,-0.5 -0.39,-0.05 -0.94,-0.1 -0.94,-1.05 0,-0.55 0.48,-0.55 1.23,-0.55 2.39,0 2.46,-0.45 2.46,-0.84 l -0.16,-1 -6.28,-24.91 c -0.14,-0.54 -0.25,-0.9 -0.25,-1.7 0,-2.83 2.2,-4.58 4.53,-4.58 1.66,0 2.89,1 3.75,2.78 0.89,1.91 1.49,4.8 1.49,4.89 0,0.5 -0.44,0.5 -0.6,0.5 -0.5,0 -0.55,-0.2 -0.7,-0.9 -0.85,-3.24 -1.78,-6.17 -3.78,-6.17 -1.5,0 -1.5,1.59 -1.5,2.29 0,1.19 0.06,1.44 0.29,2.39 z"
         id="path7359" /><path
         style="fill:#000000;stroke-width:0"
         inkscape:connector-curvature="0"
         d="m 566.89,440.23 0,0 0,0.01 0,0 0,0.01 0,0.02 0,0.01 0,0.02 -0.01,0.02 0,0.02 0,0.02 -0.01,0.02 -0.01,0.02 0,0.02 -0.01,0.03 -0.01,0.02 -0.02,0.03 -0.01,0.02 -0.02,0.03 -0.02,0.02 -0.02,0.02 -0.02,0.03 -0.01,0.01 -0.01,0.01 -0.02,0.01 -0.01,0.01 -0.02,0.01 -0.01,0.01 -0.02,0.01 -0.02,0.01 -0.01,0.01 -0.02,0.01 -0.02,0 -0.02,0.01 -0.02,0.01 -0.02,0 -0.03,0.01 -0.02,0.01 -0.02,0 -0.03,0 -0.02,0.01 -0.03,0 -0.03,0 -0.03,0.01 -0.03,0 -0.03,0 c -1.14,0 -4.78,-0.41 -6.07,-0.5 -0.39,-0.05 -0.94,-0.1 -0.94,-1.05 0,-0.55 0.48,-0.55 1.23,-0.55 2.39,0 2.46,-0.45 2.46,-0.84 l -0.16,-1 -6.28,-24.91 c -0.14,-0.54 -0.25,-0.9 -0.25,-1.7 0,-2.83 2.2,-4.58 4.53,-4.58 1.66,0 2.89,1 3.75,2.78 0.89,1.91 1.48,4.8 1.48,4.89 0,0.5 -0.43,0.5 -0.59,0.5 -0.5,0 -0.55,-0.2 -0.7,-0.9 -0.85,-3.24 -1.78,-6.17 -3.78,-6.17 -1.5,0 -1.5,1.59 -1.5,2.29 0,1.19 0.06,1.44 0.29,2.39 z"
         id="path7361" /><path
         style="fill:#000000;stroke-width:0"
         inkscape:connector-curvature="0"
         d="m 593.23,419.79 -0.01,0.48 -0.03,0.47 -0.05,0.46 -0.07,0.44 -0.09,0.44 -0.1,0.42 -0.13,0.4 -0.14,0.4 -0.15,0.38 -0.18,0.36 -0.19,0.36 -0.2,0.34 -0.22,0.32 -0.24,0.31 -0.24,0.3 -0.27,0.28 -0.27,0.26 -0.29,0.25 -0.3,0.24 -0.31,0.22 -0.32,0.2 -0.34,0.19 -0.34,0.17 -0.36,0.15 -0.36,0.13 -0.37,0.12 -0.38,0.1 -0.39,0.09 -0.4,0.06 -0.4,0.05 -0.41,0.03 -0.42,0 -0.05,-1.09 c 2.89,0 4.39,-2.39 4.39,-5.37 0,-1.96 -1,-7.18 -2.89,-10.43 -1.75,-2.89 -4.48,-4.57 -6.78,-4.57 h 0 c -2.14,0 -4.33,1.54 -4.33,5.43 0,2.44 1.3,7.82 2.89,10.36 2.49,3.83 5.33,4.58 6.72,4.58 l 0.05,1.09 c -6.67,0 -13.35,-7.06 -13.35,-14.14 0,-4.93 3.33,-8.42 7.97,-8.42 6.63,0 13.35,6.88 13.35,14.14 z"
         id="path7363" /><path
         style="fill:#000000;stroke-width:0"
         inkscape:connector-curvature="0"
         d="m 617,423.09 0.02,0.1 0.03,0.11 0.03,0.12 0.02,0.11 0.03,0.12 0.03,0.12 0.06,0.25 0.06,0.25 0.07,0.25 0.06,0.24 0.06,0.25 0.03,0.11 0.03,0.12 0.02,0.11 0.03,0.11 0.02,0.1 0.03,0.1 0.02,0.1 0.02,0.09 0.02,0.08 0.01,0.08 0.02,0.07 0.01,0.06 0.01,0.06 0,0.05 0.01,0.04 0,0.03 c 0,0.91 -0.7,1.35 -1.45,1.35 -0.6,0 -1.49,-0.39 -1.83,-1.39 -0.16,-0.35 -2.5,-9.86 -2.85,-11.16 -0.35,-1.5 -0.45,-2.39 -0.45,-3.3 0,-0.54 0,-0.64 0.05,-0.89 -1.14,-2.64 -2.64,-4.18 -4.58,-4.18 -3.98,0 -3.98,3.68 -3.98,4.53 0,1.59 0.25,3.54 2.59,9.67 0.55,1.48 0.84,2.19 0.84,3.19 0,2.23 -1.64,4.07 -4.09,4.07 -4.73,0 -6.58,-7.21 -6.58,-7.67 0,-0.5 0.5,-0.5 0.61,-0.5 0.5,0 0.55,0.11 0.8,0.91 1.34,4.62 3.28,6.17 5.03,6.17 0.44,0 1.25,-0.05 1.25,-1.64 0,-1.25 -0.56,-2.64 -0.91,-3.48 -2.18,-5.88 -2.78,-8.18 -2.78,-10.07 0,-4.53 3.33,-6.28 7.06,-6.28 0.86,0 3.19,0 5.19,3.49 1.3,-3.19 4.74,-3.49 6.24,-3.49 3.73,0 5.92,3.14 7.21,6.13 1.69,3.89 3.29,10.56 3.29,12.95 0,2.75 -1.35,3.48 -2.19,3.48 -1.25,0 -2.49,-1.29 -2.49,-2.39 0,-0.64 0.3,-0.93 0.74,-1.34 0.55,-0.55 1.8,-1.84 1.8,-4.23 0,-1.69 -1.44,-6.58 -2.74,-9.11 -1.3,-2.64 -3.05,-4.39 -5.48,-4.39 -2.35,0 -3.69,1.5 -3.69,4.32 0,1.41 0.34,2.96 0.55,3.64 z"
         id="path7365" /></g>  </g>
  <g
     id="g7506"
     transform="matrix(0.63734924,0,0,0.7153657,418.20327,-110.75417)">
    <g
       word-spacing="normal"
       letter-spacing="normal"
       font-size-adjust="none"
       font-stretch="normal"
       font-weight="normal"
       font-variant="normal"
       font-style="normal"
       stroke-miterlimit="10.433"
       xml:space="preserve"
       transform="matrix(0.85714286,0,0,-0.85714286,-150,600)"
       id="g7508"
       style="font-style:normal;font-variant:normal;font-weight:normal;font-stretch:normal;letter-spacing:normal;word-spacing:normal;text-anchor:start;fill:none;stroke:#000000;stroke-width:1.09163189;stroke-linecap:butt;stroke-linejoin:miter;stroke-miterlimit:10.43299961;stroke-opacity:1;stroke-dasharray:none;stroke-dashoffset:0"><path
         id="path7510"
         d="m 485.91,422.29 0,0.07 0,0.06 0,0.07 0,0.06 0,0.06 -0.01,0.06 0,0.11 -0.01,0.1 -0.01,0.1 -0.01,0.09 -0.01,0.09 -0.02,0.08 -0.02,0.07 -0.02,0.07 -0.03,0.06 -0.03,0.06 -0.03,0.06 -0.04,0.05 -0.04,0.04 -0.05,0.04 -0.05,0.04 -0.05,0.03 -0.06,0.03 -0.06,0.03 -0.07,0.02 -0.08,0.02 -0.08,0.02 -0.08,0.01 -0.1,0.02 -0.09,0.01 -0.11,0 -0.11,0.01 -0.06,0 -0.05,0 -0.07,0 -0.06,0 -0.06,0 -0.07,0 h -24.31 c -0.71,0 -1.64,0 -1.64,-1 0,-0.98 0.93,-0.98 1.64,-0.98 h 23.95 v -9.67 c 0,-0.75 0,-1.64 1,-1.64 1,0 1,0.89 1,1.64 z"
         inkscape:connector-curvature="0"
         style="fill:#000000;stroke-width:0" /><path
         id="path7512"
         d="m 493.15,409.14 -0.02,-0.07 -0.01,-0.08 -0.02,-0.07 -0.02,-0.08 -0.03,-0.16 -0.04,-0.16 -0.04,-0.16 -0.03,-0.16 -0.04,-0.16 -0.04,-0.16 -0.01,-0.08 -0.02,-0.07 -0.02,-0.07 -0.01,-0.07 -0.02,-0.07 -0.01,-0.07 -0.01,-0.06 -0.02,-0.06 -0.01,-0.06 -0.01,-0.05 0,-0.05 -0.01,-0.04 -0.01,-0.04 0,-0.04 0,-0.03 0,-0.02 c 0,-0.89 0.7,-1.35 1.43,-1.35 0.61,0 1.5,0.39 1.85,1.39 0.11,0.21 1.79,6.99 2,7.88 0.39,1.64 1.29,5.12 1.59,6.48 0.2,0.64 1.59,2.99 2.78,4.08 0.41,0.34 1.85,1.64 4,1.64 1.28,0 2.03,-0.59 2.08,-0.59 -1.48,-0.25 -2.58,-1.46 -2.58,-2.74 0,-0.79 0.55,-1.75 1.89,-1.75 1.35,0 2.74,1.14 2.74,2.94 0,1.75 -1.6,3.23 -4.13,3.23 -3.25,0 -5.44,-2.43 -6.39,-3.82 -0.39,2.23 -2.19,3.82 -4.53,3.82 -2.28,0 -3.23,-1.93 -3.69,-2.82 -0.89,-1.71 -1.54,-4.69 -1.54,-4.85 0,-0.5 0.5,-0.5 0.6,-0.5 0.5,0 0.55,0.07 0.85,1.16 0.84,3.53 1.84,5.92 3.64,5.92 0.84,0 1.55,-0.39 1.55,-2.28 0,-1.05 -0.16,-1.61 -0.8,-4.19 z"
         inkscape:connector-curvature="0"
         style="fill:#000000;stroke-width:0" /><path
         id="path7514"
         d="m 521.95,417.71 0.14,0.01 0.16,0 0.16,0 0.18,0 0.19,0.01 0.2,0 0.21,0.01 0.21,0.01 0.23,0.01 0.23,0.01 0.24,0.01 0.25,0.02 0.25,0.02 0.25,0.02 0.52,0.05 0.54,0.07 0.54,0.07 0.55,0.1 0.54,0.11 0.53,0.12 0.26,0.07 0.26,0.08 0.26,0.08 0.24,0.08 0.25,0.09 0.23,0.1 c 3.49,1.5 3.74,4.43 3.74,5.12 0,2.2 -1.89,4.23 -5.33,4.23 v -1.09 c 2.34,0 3.69,-1.44 3.69,-3.14 0,-5.17 -7.97,-5.17 -10.02,-5.17 h -2.05 c 1.96,7.56 7.08,8.31 8.38,8.31 v 1.09 c -5.53,0 -13.05,-4.82 -13.05,-13.54 0,-5.08 2.94,-9.02 7.82,-9.02 7.12,0 11.31,5.28 11.31,5.88 0,0.29 -0.3,0.65 -0.59,0.65 -0.25,0 -0.35,-0.11 -0.66,-0.5 -3.94,-4.93 -9.36,-4.93 -9.96,-4.93 -3.88,0 -4.34,4.18 -4.34,5.78 0,0.59 0.05,2.14 0.8,5.18 z"
         inkscape:connector-curvature="0"
         style="fill:#000000;stroke-width:0" /><path
         id="path7516"
         d="m 561.5,440.23 0,0 0,0.01 0,0 0,0.01 -0.01,0.02 0,0.01 0,0.02 0,0.02 0,0.02 -0.01,0.02 0,0.02 -0.01,0.02 -0.01,0.02 -0.01,0.03 -0.01,0.02 -0.01,0.03 -0.01,0.02 -0.02,0.03 -0.02,0.02 -0.02,0.02 -0.02,0.03 -0.01,0.01 -0.02,0.01 -0.01,0.01 -0.01,0.01 -0.02,0.01 -0.01,0.01 -0.02,0.01 -0.01,0.01 -0.02,0.01 -0.02,0.01 -0.02,0 -0.02,0.01 -0.02,0.01 -0.02,0 -0.02,0.01 -0.02,0.01 -0.03,0 -0.02,0 -0.03,0.01 -0.02,0 -0.03,0 -0.03,0.01 -0.03,0 -0.03,0 c -0.75,0 -5.48,-0.46 -6.32,-0.55 -0.41,-0.05 -0.71,-0.3 -0.71,-0.95 0,-0.6 0.46,-0.6 1.21,-0.6 2.39,0 2.48,-0.34 2.48,-0.84 l -0.14,-1 -3,-11.81 c -0.89,1.84 -2.34,3.18 -4.58,3.18 l 0.05,-1.09 c 3.23,0 3.94,-4.08 3.94,-4.37 0,-0.32 -0.1,-0.61 -0.14,-0.86 l -2.5,-9.77 c -0.25,-0.89 -0.25,-0.98 -1,-1.84 -2.19,-2.74 -4.24,-3.53 -5.63,-3.53 -2.48,0 -3.19,2.73 -3.19,4.68 0,2.49 1.6,8.61 2.74,10.91 1.54,2.94 3.79,4.78 5.78,4.78 l -0.05,1.09 c -5.82,0 -12,-7.31 -12,-14.59 0,-4.69 2.74,-7.97 6.63,-7.97 0.98,0 3.48,0.21 6.47,3.74 0.4,-2.1 2.14,-3.74 4.53,-3.74 1.75,0 2.89,1.14 3.68,2.74 0.85,1.79 1.5,4.84 1.5,4.93 0,0.5 -0.45,0.5 -0.59,0.5 -0.5,0 -0.54,-0.2 -0.7,-0.9 -0.84,-3.24 -1.75,-6.17 -3.78,-6.17 -1.35,0 -1.5,1.29 -1.5,2.29 0,1.19 0.09,1.55 0.29,2.39 z"
         inkscape:connector-curvature="0"
         style="fill:#000000;stroke-width:0" /><path
         id="path7518"
         d="m 607.12,435 -0.04,0.09 -0.04,0.09 -0.04,0.09 -0.05,0.09 -0.02,0.05 -0.03,0.04 -0.02,0.04 -0.03,0.04 -0.03,0.04 -0.03,0.04 -0.02,0.04 -0.04,0.03 -0.03,0.04 -0.03,0.03 -0.04,0.03 -0.03,0.03 -0.04,0.03 -0.04,0.02 -0.04,0.03 -0.04,0.02 -0.05,0.02 -0.05,0.02 -0.04,0.01 -0.05,0.01 -0.06,0.01 -0.05,0.01 -0.06,0 -0.06,0.01 c -0.45,0 -0.79,-0.25 -1.09,-0.96 l -12.41,-28.09 c -0.29,-0.59 -0.29,-0.7 -0.29,-0.84 0,-0.55 0.43,-1 0.98,-1 0.36,0 0.75,0.09 1.09,0.93 l 11.72,26.52 11.71,-26.45 c 0.25,-0.55 0.45,-1 1.09,-1 0.55,0 1,0.45 1,1 0,0.14 0,0.25 -0.3,0.84 z"
         inkscape:connector-curvature="0"
         style="fill:#000000;stroke-width:0" /><path
         id="path7520"
         d="m 674.49,425.18 0.01,0.04 0.01,0.03 0.01,0.06 0.02,0.05 0.01,0.06 0.01,0.05 0.02,0.04 0.01,0.05 0.01,0.04 0.01,0.04 0,0.04 0.01,0.04 0.01,0.04 0.01,0.03 0,0.03 0.01,0.03 0,0.03 0.01,0.03 0,0.03 0.01,0.05 0,0.06 0,0.05 0,0.05 0.01,0.05 0,0.03 0,0.03 0,0.03 0,0.03 c 0,0.91 -0.69,1.35 -1.44,1.35 -0.5,0 -1.3,-0.3 -1.75,-1.05 -0.09,-0.25 -0.5,-1.78 -0.69,-2.69 -0.36,-1.29 -0.7,-2.64 -1,-3.98 l -2.25,-8.97 c -0.19,-0.75 -2.33,-4.23 -5.62,-4.23 -2.53,0 -3.1,2.18 -3.1,4.03 0,2.29 0.86,5.39 2.55,9.76 0.8,2.05 1,2.6 1,3.6 0,2.23 -1.6,4.07 -4.1,4.07 -4.73,0 -6.57,-7.21 -6.57,-7.67 0,-0.5 0.5,-0.5 0.61,-0.5 0.5,0 0.54,0.11 0.79,0.91 1.35,4.69 3.33,6.17 5.04,6.17 0.38,0 1.25,0 1.25,-1.59 0,-1.25 -0.5,-2.53 -0.87,-3.49 -1.98,-5.28 -2.88,-8.12 -2.88,-10.47 0,-4.42 3.13,-5.92 6.07,-5.92 1.96,0 3.64,0.85 5.03,2.24 -0.64,-2.58 -1.23,-5.03 -3.23,-7.68 -1.3,-1.68 -3.19,-3.14 -5.49,-3.14 -0.68,0 -2.93,0.16 -3.78,2.1 0.8,0 1.46,0 2.15,0.61 0.5,0.43 1,1.09 1,2.03 0,1.55 -1.35,1.75 -1.85,1.75 -1.14,0 -2.8,-0.8 -2.8,-3.24 0,-2.5 2.21,-4.34 5.28,-4.34 5.15,0 10.27,4.55 11.68,10.17 z"
         inkscape:connector-curvature="0"
         style="fill:#000000;stroke-width:0" /><path
         id="path7522"
         d="m 685.85,417.71 0.15,0.01 0.15,0 0.17,0 0.18,0 0.19,0.01 0.2,0 0.2,0.01 0.22,0.01 0.23,0.01 0.23,0.01 0.24,0.01 0.24,0.02 0.25,0.02 0.26,0.02 0.52,0.05 0.54,0.07 0.54,0.07 0.54,0.1 0.55,0.11 0.53,0.12 0.26,0.07 0.26,0.08 0.25,0.08 0.25,0.08 0.24,0.09 0.24,0.1 c 3.49,1.5 3.74,4.43 3.74,5.12 0,2.2 -1.9,4.23 -5.33,4.23 v -1.09 c 2.34,0 3.68,-1.44 3.68,-3.14 0,-5.17 -7.97,-5.17 -10.01,-5.17 h -2.05 c 1.96,7.56 7.08,8.31 8.38,8.31 v 1.09 c -5.54,0 -13.05,-4.82 -13.05,-13.54 0,-5.08 2.94,-9.02 7.81,-9.02 7.13,0 11.32,5.28 11.32,5.88 0,0.29 -0.3,0.65 -0.6,0.65 -0.25,0 -0.34,-0.11 -0.65,-0.5 -3.94,-4.93 -9.37,-4.93 -9.96,-4.93 -3.89,0 -4.34,4.18 -4.34,5.78 0,0.59 0.05,2.14 0.8,5.18 z"
         inkscape:connector-curvature="0"
         style="fill:#000000;stroke-width:0" /><path
         id="path7524"
         d="m 712.56,440.23 0,0 0,0.01 0,0 0,0.01 0,0.02 0,0.01 -0.01,0.02 0,0.02 0,0.02 -0.01,0.02 0,0.02 -0.01,0.02 -0.01,0.02 -0.01,0.03 -0.01,0.02 -0.01,0.03 -0.01,0.02 -0.02,0.03 -0.02,0.02 -0.02,0.02 -0.02,0.03 -0.01,0.01 -0.02,0.01 -0.01,0.01 -0.01,0.01 -0.02,0.01 -0.01,0.01 -0.02,0.01 -0.02,0.01 -0.02,0.01 -0.01,0.01 -0.02,0 -0.02,0.01 -0.02,0.01 -0.03,0 -0.02,0.01 -0.02,0.01 -0.03,0 -0.02,0 -0.03,0.01 -0.02,0 -0.03,0 -0.03,0.01 -0.03,0 -0.03,0 c -1.14,0 -4.78,-0.41 -6.08,-0.5 -0.39,-0.05 -0.93,-0.1 -0.93,-1.05 0,-0.55 0.48,-0.55 1.23,-0.55 2.39,0 2.45,-0.45 2.45,-0.84 l -0.15,-1 -6.28,-24.91 c -0.14,-0.54 -0.25,-0.9 -0.25,-1.7 0,-2.83 2.2,-4.58 4.53,-4.58 1.65,0 2.89,1 3.75,2.78 0.89,1.91 1.48,4.8 1.48,4.89 0,0.5 -0.43,0.5 -0.59,0.5 -0.5,0 -0.55,-0.2 -0.71,-0.9 -0.84,-3.24 -1.78,-6.17 -3.78,-6.17 -1.5,0 -1.5,1.59 -1.5,2.29 0,1.19 0.07,1.44 0.3,2.39 z"
         inkscape:connector-curvature="0"
         style="fill:#000000;stroke-width:0" /><path
         id="path7526"
         d="m 728.4,440.23 0,0 0,0.01 0,0 0,0.01 0,0.02 0,0.01 -0.01,0.02 0,0.02 0,0.02 -0.01,0.02 0,0.02 -0.01,0.02 -0.01,0.02 -0.01,0.03 -0.01,0.02 -0.01,0.03 -0.01,0.02 -0.02,0.03 -0.02,0.02 -0.02,0.02 -0.02,0.03 -0.01,0.01 -0.02,0.01 -0.01,0.01 -0.02,0.01 -0.01,0.01 -0.02,0.01 -0.01,0.01 -0.02,0.01 -0.02,0.01 -0.01,0.01 -0.02,0 -0.02,0.01 -0.02,0.01 -0.03,0 -0.02,0.01 -0.02,0.01 -0.03,0 -0.02,0 -0.03,0.01 -0.02,0 -0.03,0 -0.03,0.01 -0.03,0 -0.03,0 c -1.14,0 -4.78,-0.41 -6.08,-0.5 -0.39,-0.05 -0.93,-0.1 -0.93,-1.05 0,-0.55 0.48,-0.55 1.23,-0.55 2.39,0 2.45,-0.45 2.45,-0.84 l -0.15,-1 -6.28,-24.91 c -0.14,-0.54 -0.25,-0.9 -0.25,-1.7 0,-2.83 2.2,-4.58 4.53,-4.58 1.65,0 2.89,1 3.75,2.78 0.89,1.91 1.48,4.8 1.48,4.89 0,0.5 -0.44,0.5 -0.59,0.5 -0.5,0 -0.55,-0.2 -0.7,-0.9 -0.85,-3.24 -1.79,-6.17 -3.79,-6.17 -1.5,0 -1.5,1.59 -1.5,2.29 0,1.19 0.07,1.44 0.3,2.39 z"
         inkscape:connector-curvature="0"
         style="fill:#000000;stroke-width:0" /><path
         id="path7528"
         d="m 754.74,419.79 -0.01,0.48 -0.03,0.47 -0.05,0.46 -0.07,0.44 -0.09,0.44 -0.1,0.42 -0.13,0.4 -0.14,0.4 -0.15,0.38 -0.18,0.36 -0.19,0.36 -0.2,0.34 -0.22,0.32 -0.23,0.31 -0.25,0.3 -0.26,0.28 -0.28,0.26 -0.29,0.25 -0.3,0.24 -0.31,0.22 -0.32,0.2 -0.34,0.19 -0.34,0.17 -0.35,0.15 -0.37,0.13 -0.37,0.12 -0.38,0.1 -0.39,0.09 -0.4,0.06 -0.4,0.05 -0.41,0.03 -0.42,0 c -6.67,0 -13.34,-7.06 -13.34,-14.14 0,-4.93 3.32,-8.42 7.97,-8.42 l 0.04,1.1 c -2.14,0 -4.33,1.54 -4.33,5.43 0,2.44 1.3,7.82 2.89,10.36 2.49,3.83 5.33,4.58 6.72,4.58 2.89,0 4.39,-2.39 4.39,-5.37 0,-1.96 -1,-7.18 -2.89,-10.43 -1.75,-2.89 -4.48,-4.57 -6.78,-4.57 h 0 l -0.04,-1.1 c 6.62,0 13.34,6.88 13.34,14.14 z"
         inkscape:connector-curvature="0"
         style="fill:#000000;stroke-width:0" /><path
         id="path7530"
         d="m 778.51,423.09 0.03,0.1 0.02,0.11 0.03,0.12 0.03,0.11 0.02,0.12 0.03,0.12 0.06,0.25 0.07,0.25 0.06,0.25 0.06,0.24 0.06,0.25 0.03,0.11 0.03,0.12 0.02,0.11 0.03,0.11 0.03,0.1 0.02,0.1 0.02,0.1 0.02,0.09 0.02,0.08 0.01,0.08 0.02,0.07 0.01,0.06 0.01,0.06 0.01,0.05 0,0.04 0,0.03 c 0,0.91 -0.7,1.35 -1.45,1.35 -0.59,0 -1.49,-0.39 -1.83,-1.39 -0.16,-0.35 -2.5,-9.86 -2.84,-11.16 -0.36,-1.5 -0.46,-2.39 -0.46,-3.3 0,-0.54 0,-0.64 0.05,-0.89 -1.14,-2.64 -2.64,-4.18 -4.58,-4.18 -3.98,0 -3.98,3.68 -3.98,4.53 0,1.59 0.25,3.54 2.59,9.67 0.55,1.48 0.84,2.19 0.84,3.19 0,2.23 -1.63,4.07 -4.09,4.07 -4.73,0 -6.58,-7.21 -6.58,-7.67 0,-0.5 0.5,-0.5 0.61,-0.5 0.5,0 0.55,0.11 0.8,0.91 1.34,4.62 3.28,6.17 5.03,6.17 0.44,0 1.25,-0.05 1.25,-1.64 0,-1.25 -0.56,-2.64 -0.9,-3.48 -2.19,-5.88 -2.79,-8.18 -2.79,-10.07 0,-4.53 3.33,-6.28 7.07,-6.28 0.85,0 3.18,0 5.18,3.49 1.3,-3.19 4.74,-3.49 6.24,-3.49 3.73,0 5.92,3.14 7.22,6.13 1.68,3.89 3.28,10.56 3.28,12.95 0,2.75 -1.35,3.48 -2.19,3.48 -1.25,0 -2.48,-1.29 -2.48,-2.39 0,-0.64 0.29,-0.93 0.73,-1.34 0.55,-0.55 1.8,-1.84 1.8,-4.23 0,-1.69 -1.44,-6.58 -2.74,-9.11 -1.29,-2.64 -3.04,-4.39 -5.48,-4.39 -2.34,0 -3.69,1.5 -3.69,4.32 0,1.41 0.35,2.96 0.55,3.64 z"
         inkscape:connector-curvature="0"
         style="fill:#000000;stroke-width:0" /></g>  </g>
  <g
     id="g20636"
     transform="matrix(0.36687929,0,0,0.3854685,-24.30423,32.560224)">
    <path
       d="m 535.38083,160.39749 c 0,27.3367 -44.77381,49.49748 -100.0051,49.49748 -55.23129,0 -100.00509,-22.16078 -100.00509,-49.49748 0,-27.3367 44.7738,-49.49747 100.00509,-49.49747 55.23129,0 100.0051,22.16077 100.0051,49.49747 z"
       id="path20611"
       sodipodi:cx="435.37573"
       sodipodi:cy="160.39749"
       sodipodi:rx="100.0051"
       sodipodi:ry="49.497475"
       sodipodi:type="arc"
       style="color:#000000;fill:url(#radialGradient20697);fill-opacity:1;fill-rule:nonzero;stroke:none;stroke-width:8.28270054;marker:none;visibility:visible;display:inline;overflow:visible"
       transform="matrix(0.919932,0,0,1.162089,18.43064,13.41755)" />
    <rect
       height="635.56036"
       id="rect15472"
       style="color:#000000;fill:url(#linearGradient20699);fill-opacity:1;fill-rule:nonzero;stroke:none;stroke-width:7.49999905;marker:none;visibility:visible;display:inline;overflow:visible"
       width="236.07143"
       x="300"
       y="193.15321" />
    <g
       id="g11671">
      <g
         id="g11616">
        <rect
           height="202.14285"
           id="rect7217"
           ry="0"
           style="color:#000000;fill:#242424;fill-opacity:1;fill-rule:nonzero;stroke:none;stroke-width:7.5;marker:none;visibility:visible;display:inline;overflow:visible"
           width="202.14285"
           x="317.85715"
           y="205.21933" />
        <path
           d="m 520.25496,204.9821 -202.11149,0 8.16677,8.16678 185.77794,0 8.16678,-8.16678 z"
           id="path7221"
           sodipodi:nodetypes="ccccc"
           style="fill:#4c4c4c;fill-opacity:1;fill-rule:evenodd;stroke:none"
           inkscape:connector-curvature="0" />
        <path
           d="m 520.25496,407.59869 -202.61657,0 8.16677,-8.16679 186.28302,0 8.16678,8.16679 z"
           id="path8682"
           sodipodi:nodetypes="ccccc"
           style="fill:#000000;fill-opacity:1;fill-rule:evenodd;stroke:none"
           inkscape:connector-curvature="0" />
        <path
           d="m 317.63835,204.47702 0,203.12165 8.16678,-8.16678 0,-186.7881 -8.16678,-8.16677 z"
           id="path8694"
           sodipodi:nodetypes="ccccc"
           style="fill:#000000;fill-opacity:1;fill-rule:evenodd;stroke:none"
           inkscape:connector-curvature="0" />
        <path
           d="m 520.25494,204.9821 0,202.61657 -8.16678,-8.16678 0,-186.28302 8.16678,-8.16677 z"
           id="path8696"
           sodipodi:nodetypes="ccccc"
           style="fill:#4c4c4c;fill-opacity:1;fill-rule:evenodd;stroke:none"
           inkscape:connector-curvature="0" />
      </g>
      <g
         id="g11623"
         transform="translate(0,-0.2529)">
        <path
           d="m 462.85715,343.79074 c 0,29.98117 -24.30454,54.28571 -54.28571,54.28571 -29.98117,0 -54.28571,-24.30454 -54.28571,-54.28571 0,-29.98117 24.30454,-54.28571 54.28571,-54.28571 29.98117,0 54.28571,24.30454 54.28571,54.28571 z"
           id="path3517"
           sodipodi:cx="408.57144"
           sodipodi:cy="343.79074"
           sodipodi:rx="54.285713"
           sodipodi:ry="54.285713"
           sodipodi:type="arc"
           style="color:#000000;fill:url(#radialGradient20701);fill-opacity:1;fill-rule:nonzero;stroke:none;stroke-width:5.34439707;marker:none;visibility:visible;display:inline;overflow:visible"
           transform="matrix(1.403339,0,0,1.403339,-154.4357,-176.1642)" />
        <path
           d="m 462.85715,343.79074 c 0,29.98117 -24.30454,54.28571 -54.28571,54.28571 -29.98117,0 -54.28571,-24.30454 -54.28571,-54.28571 0,-29.98117 24.30454,-54.28571 54.28571,-54.28571 29.98117,0 54.28571,24.30454 54.28571,54.28571 z"
           id="path2044"
           sodipodi:cx="408.57144"
           sodipodi:cy="343.79074"
           sodipodi:rx="54.285713"
           sodipodi:ry="54.285713"
           sodipodi:type="arc"
           style="color:#000000;fill:none;stroke:url(#linearGradient20703);stroke-width:14.58399391;stroke-linecap:round;stroke-linejoin:round;stroke-miterlimit:4;stroke-opacity:1;stroke-dasharray:none;stroke-dashoffset:0;marker:none;visibility:visible;display:inline;overflow:visible"
           transform="matrix(1.403339,0,0,1.403339,-154.4357,-176.1642)" />
      </g>
    </g>
    <g
       id="g11682">
      <g
         id="g11627"
         transform="translate(0,205)">
        <rect
           height="202.14285"
           id="rect11629"
           ry="0"
           style="color:#000000;fill:#242424;fill-opacity:1;fill-rule:nonzero;stroke:none;stroke-width:7.5;marker:none;visibility:visible;display:inline;overflow:visible"
           width="202.14285"
           x="317.85715"
           y="205.21933" />
        <path
           d="m 520.25496,204.9821 -202.11149,0 8.16677,8.16678 185.77794,0 8.16678,-8.16678 z"
           id="path11631"
           sodipodi:nodetypes="ccccc"
           style="fill:#4c4c4c;fill-opacity:1;fill-rule:evenodd;stroke:none"
           inkscape:connector-curvature="0" />
        <path
           d="m 520.25496,407.59869 -202.61657,0 8.16677,-8.16679 186.28302,0 8.16678,8.16679 z"
           id="path11633"
           sodipodi:nodetypes="ccccc"
           style="fill:#000000;fill-opacity:1;fill-rule:evenodd;stroke:none"
           inkscape:connector-curvature="0" />
        <path
           d="m 317.63835,204.47702 0,203.12165 8.16678,-8.16678 0,-186.7881 -8.16678,-8.16677 z"
           id="path11635"
           sodipodi:nodetypes="ccccc"
           style="fill:#000000;fill-opacity:1;fill-rule:evenodd;stroke:none"
           inkscape:connector-curvature="0" />
        <path
           d="m 520.25494,204.9821 0,202.61657 -8.16678,-8.16678 0,-186.28302 8.16678,-8.16677 z"
           id="path11637"
           sodipodi:nodetypes="ccccc"
           style="fill:#4c4c4c;fill-opacity:1;fill-rule:evenodd;stroke:none"
           inkscape:connector-curvature="0" />
      </g>
      <g
         id="g11651"
         transform="translate(0,3.247)">
        <path
           d="m 462.85715,343.79074 c 0,29.98117 -24.30454,54.28571 -54.28571,54.28571 -29.98117,0 -54.28571,-24.30454 -54.28571,-54.28571 0,-29.98117 24.30454,-54.28571 54.28571,-54.28571 29.98117,0 54.28571,24.30454 54.28571,54.28571 z"
           id="path4269"
           sodipodi:cx="408.57144"
           sodipodi:cy="343.79074"
           sodipodi:rx="54.285713"
           sodipodi:ry="54.285713"
           sodipodi:type="arc"
           style="color:#000000;fill:url(#radialGradient20705);fill-opacity:1;fill-rule:nonzero;stroke:none;stroke-width:5.34439707;marker:none;visibility:visible;display:inline;overflow:visible"
           transform="matrix(1.403339,0,0,1.403339,-154.4357,25.3359)" />
        <path
           d="m 462.85715,343.79074 c 0,29.98117 -24.30454,54.28571 -54.28571,54.28571 -29.98117,0 -54.28571,-24.30454 -54.28571,-54.28571 0,-29.98117 24.30454,-54.28571 54.28571,-54.28571 29.98117,0 54.28571,24.30454 54.28571,54.28571 z"
           id="path4271"
           sodipodi:cx="408.57144"
           sodipodi:cy="343.79074"
           sodipodi:rx="54.285713"
           sodipodi:ry="54.285713"
           sodipodi:type="arc"
           style="color:#000000;fill:none;stroke:url(#linearGradient20707);stroke-width:14.58399391;stroke-linecap:round;stroke-linejoin:round;stroke-miterlimit:4;stroke-opacity:1;stroke-dasharray:none;stroke-dashoffset:0;marker:none;visibility:visible;display:inline;overflow:visible"
           transform="matrix(1.403339,0,0,1.403339,-154.4357,25.3359)" />
      </g>
    </g>
    <g
       id="g11693">
      <g
         id="g11639"
         transform="translate(0,410)">
        <rect
           height="202.14285"
           id="rect11641"
           ry="0"
           style="color:#000000;fill:#242424;fill-opacity:1;fill-rule:nonzero;stroke:none;stroke-width:7.5;marker:none;visibility:visible;display:inline;overflow:visible"
           width="202.14285"
           x="317.85715"
           y="205.21933" />
        <path
           d="m 520.25496,204.9821 -202.11149,0 8.16677,8.16678 185.77794,0 8.16678,-8.16678 z"
           id="path11643"
           sodipodi:nodetypes="ccccc"
           style="fill:#4c4c4c;fill-opacity:1;fill-rule:evenodd;stroke:none"
           inkscape:connector-curvature="0" />
        <path
           d="m 520.25496,407.59869 -202.61657,0 8.16677,-8.16679 186.28302,0 8.16678,8.16679 z"
           id="path11645"
           sodipodi:nodetypes="ccccc"
           style="fill:#000000;fill-opacity:1;fill-rule:evenodd;stroke:none"
           inkscape:connector-curvature="0" />
        <path
           d="m 317.63835,204.47702 0,203.12165 8.16678,-8.16678 0,-186.7881 -8.16678,-8.16677 z"
           id="path11647"
           sodipodi:nodetypes="ccccc"
           style="fill:#000000;fill-opacity:1;fill-rule:evenodd;stroke:none"
           inkscape:connector-curvature="0" />
        <path
           d="m 520.25494,204.9821 0,202.61657 -8.16678,-8.16678 0,-186.28302 8.16678,-8.16677 z"
           id="path11649"
           sodipodi:nodetypes="ccccc"
           style="fill:#4c4c4c;fill-opacity:1;fill-rule:evenodd;stroke:none"
           inkscape:connector-curvature="0" />
      </g>
      <g
         id="g11655"
         transform="translate(0.01811665,4.247)">
        <path
           d="m 462.85715,343.79074 c 0,29.98117 -24.30454,54.28571 -54.28571,54.28571 -29.98117,0 -54.28571,-24.30454 -54.28571,-54.28571 0,-29.98117 24.30454,-54.28571 54.28571,-54.28571 29.98117,0 54.28571,24.30454 54.28571,54.28571 z"
           id="path4277"
           sodipodi:cx="408.57144"
           sodipodi:cy="343.79074"
           sodipodi:rx="54.285713"
           sodipodi:ry="54.285713"
           sodipodi:type="arc"
           style="color:#000000;fill:url(#radialGradient20709);fill-opacity:1;fill-rule:nonzero;stroke:none;stroke-width:5.34439707;marker:none;visibility:visible;display:inline;overflow:visible"
           transform="matrix(1.403339,0,0,1.403339,-154.4357,229.3359)" />
        <path
           d="m 462.85715,343.79074 c 0,29.98117 -24.30454,54.28571 -54.28571,54.28571 -29.98117,0 -54.28571,-24.30454 -54.28571,-54.28571 0,-29.98117 24.30454,-54.28571 54.28571,-54.28571 29.98117,0 54.28571,24.30454 54.28571,54.28571 z"
           id="path4279"
           sodipodi:cx="408.57144"
           sodipodi:cy="343.79074"
           sodipodi:rx="54.285713"
           sodipodi:ry="54.285713"
           sodipodi:type="arc"
           style="color:#000000;fill:none;stroke:url(#linearGradient20711);stroke-width:14.58399391;stroke-linecap:round;stroke-linejoin:round;stroke-miterlimit:4;stroke-opacity:1;stroke-dasharray:none;stroke-dashoffset:0;marker:none;visibility:visible;display:inline;overflow:visible"
           transform="matrix(1.403339,0,0,1.403339,-154.4357,229.3359)" />
      </g>
    </g>
    <g
       id="g15403"
       transform="translate(14,0)">
      <path
         d="m 547.28571,790.93361 1.42858,-150.71427 143.57144,0 c -0.54681,34.57462 7.65996,45.98919 -45.50408,89.77006 C 618.71134,753.10545 604.33578,759.55497 603,790.93361 l -55.71429,0 z"
         id="path11710"
         sodipodi:nodetypes="ccsccc"
         style="color:#000000;fill:url(#linearGradient20713);fill-opacity:1;fill-rule:nonzero;stroke:url(#linearGradient20715);stroke-width:20.46628761;stroke-linecap:round;stroke-linejoin:miter;stroke-miterlimit:4;stroke-opacity:1;stroke-dasharray:none;stroke-dashoffset:0;marker:none;visibility:visible;display:inline;overflow:visible"
         inkscape:connector-curvature="0" />
      <rect
         height="202.54465"
         id="rect15401"
         ry="0"
         style="color:#000000;fill:#242424;fill-opacity:1;fill-rule:nonzero;stroke:none;stroke-width:7.5;marker:none;visibility:visible;display:inline;overflow:visible"
         width="15.714281"
         x="522.28571"
         y="614.99615" />
      <path
         d="m 537.96317,614.9821 0,202.61657 8.16678,-8.16678 0,-186.28302 -8.16678,-8.16677 z"
         id="path14673"
         sodipodi:nodetypes="ccccc"
         style="fill:#4c4c4c;fill-opacity:1;fill-rule:evenodd;stroke:none"
         inkscape:connector-curvature="0" />
    </g>
    <g
       id="g15412"
       transform="translate(14,-410)">
      <path
         d="m 547.28571,790.93361 1.42858,-150.71427 143.57144,0 c -0.54681,34.57462 7.65996,45.98919 -45.50408,89.77006 C 618.71134,753.10545 604.33578,759.55497 603,790.93361 l -55.71429,0 z"
         id="path15414"
         sodipodi:nodetypes="ccsccc"
         style="color:#000000;fill:url(#linearGradient20717);fill-opacity:1;fill-rule:nonzero;stroke:url(#linearGradient20719);stroke-width:20.46628761;stroke-linecap:round;stroke-linejoin:miter;stroke-miterlimit:4;stroke-opacity:1;stroke-dasharray:none;stroke-dashoffset:0;marker:none;visibility:visible;display:inline;overflow:visible"
         inkscape:connector-curvature="0" />
      <rect
         height="202.54465"
         id="rect15416"
         ry="0"
         style="color:#000000;fill:#242424;fill-opacity:1;fill-rule:nonzero;stroke:none;stroke-width:7.5;marker:none;visibility:visible;display:inline;overflow:visible"
         width="15.714281"
         x="522.28571"
         y="614.99615" />
      <path
         d="m 537.96317,614.9821 0,202.61657 8.16678,-8.16678 0,-186.28302 -8.16678,-8.16677 z"
         id="path15418"
         sodipodi:nodetypes="ccccc"
         style="fill:#4c4c4c;fill-opacity:1;fill-rule:evenodd;stroke:none"
         inkscape:connector-curvature="0" />
    </g>
    <g
       id="g15424"
       transform="translate(14,-205)">
      <path
         d="m 547.28571,790.93361 1.42858,-150.71427 143.57144,0 c -0.54681,34.57462 7.65996,45.98919 -45.50408,89.77006 C 618.71134,753.10545 604.33578,759.55497 603,790.93361 l -55.71429,0 z"
         id="path15426"
         sodipodi:nodetypes="ccsccc"
         style="color:#000000;fill:url(#linearGradient20721);fill-opacity:1;fill-rule:nonzero;stroke:url(#linearGradient20723);stroke-width:20.46628761;stroke-linecap:round;stroke-linejoin:miter;stroke-miterlimit:4;stroke-opacity:1;stroke-dasharray:none;stroke-dashoffset:0;marker:none;visibility:visible;display:inline;overflow:visible"
         inkscape:connector-curvature="0" />
      <rect
         height="202.54465"
         id="rect15428"
         ry="0"
         style="color:#000000;fill:#242424;fill-opacity:1;fill-rule:nonzero;stroke:none;stroke-width:7.5;marker:none;visibility:visible;display:inline;overflow:visible"
         width="15.714281"
         x="522.28571"
         y="614.99615" />
      <path
         d="m 537.96317,614.9821 0,202.61657 8.16678,-8.16678 0,-186.28302 -8.16678,-8.16677 z"
         id="path15430"
         sodipodi:nodetypes="ccccc"
         style="fill:#4c4c4c;fill-opacity:1;fill-rule:evenodd;stroke:none"
         inkscape:connector-curvature="0" />
    </g>
    <g
       id="g15436"
       transform="matrix(-1,0,0,1,822.486,0)">
      <path
         d="m 547.28571,790.93361 1.42858,-150.71427 143.57144,0 c -0.54681,34.57462 7.65996,45.98919 -45.50408,89.77006 C 618.71134,753.10545 604.33578,759.55497 603,790.93361 l -55.71429,0 z"
         id="path15438"
         sodipodi:nodetypes="ccsccc"
         style="color:#000000;fill:url(#linearGradient20725);fill-opacity:1;fill-rule:nonzero;stroke:url(#linearGradient20727);stroke-width:20.46628761;stroke-linecap:round;stroke-linejoin:miter;stroke-miterlimit:4;stroke-opacity:1;stroke-dasharray:none;stroke-dashoffset:0;marker:none;visibility:visible;display:inline;overflow:visible"
         inkscape:connector-curvature="0" />
      <rect
         height="202.54465"
         id="rect15440"
         ry="0"
         style="color:#000000;fill:#242424;fill-opacity:1;fill-rule:nonzero;stroke:none;stroke-width:7.5;marker:none;visibility:visible;display:inline;overflow:visible"
         width="15.714281"
         x="522.28571"
         y="614.99615" />
      <path
         d="m 537.96317,614.9821 0,202.61657 8.16678,-8.16678 0,-186.28302 -8.16678,-8.16677 z"
         id="path15442"
         sodipodi:nodetypes="ccccc"
         style="fill:#000000;fill-opacity:1;fill-rule:evenodd;stroke:none"
         inkscape:connector-curvature="0" />
    </g>
    <g
       id="g15444"
       transform="matrix(-1,0,0,1,822.486,-410)">
      <path
         d="m 547.28571,790.93361 1.42858,-150.71427 143.57144,0 c -0.54681,34.57462 7.65996,45.98919 -45.50408,89.77006 C 618.71134,753.10545 604.33578,759.55497 603,790.93361 l -55.71429,0 z"
         id="path15446"
         sodipodi:nodetypes="ccsccc"
         style="color:#000000;fill:url(#linearGradient20729);fill-opacity:1;fill-rule:nonzero;stroke:url(#linearGradient20731);stroke-width:20.46628761;stroke-linecap:round;stroke-linejoin:miter;stroke-miterlimit:4;stroke-opacity:1;stroke-dasharray:none;stroke-dashoffset:0;marker:none;visibility:visible;display:inline;overflow:visible"
         inkscape:connector-curvature="0" />
      <rect
         height="202.54465"
         id="rect15448"
         ry="0"
         style="color:#000000;fill:#242424;fill-opacity:1;fill-rule:nonzero;stroke:none;stroke-width:7.5;marker:none;visibility:visible;display:inline;overflow:visible"
         width="15.714281"
         x="522.28571"
         y="614.99615" />
      <path
         d="m 537.96317,614.9821 0,202.61657 8.16678,-8.16678 0,-186.28302 -8.16678,-8.16677 z"
         id="path15450"
         sodipodi:nodetypes="ccccc"
         style="fill:#000000;fill-opacity:1;fill-rule:evenodd;stroke:none"
         inkscape:connector-curvature="0" />
    </g>
    <g
       id="g15452"
       transform="matrix(-1,0,0,1,822.486,-205)">
      <path
         d="m 547.28571,790.93361 1.42858,-150.71427 143.57144,0 c -0.54681,34.57462 7.65996,45.98919 -45.50408,89.77006 C 618.71134,753.10545 604.33578,759.55497 603,790.93361 l -55.71429,0 z"
         id="path15454"
         sodipodi:nodetypes="ccsccc"
         style="color:#000000;fill:url(#linearGradient20733);fill-opacity:1;fill-rule:nonzero;stroke:url(#linearGradient20735);stroke-width:20.46628761;stroke-linecap:round;stroke-linejoin:miter;stroke-miterlimit:4;stroke-opacity:1;stroke-dasharray:none;stroke-dashoffset:0;marker:none;visibility:visible;display:inline;overflow:visible"
         inkscape:connector-curvature="0" />
      <rect
         height="202.54465"
         id="rect15456"
         ry="0"
         style="color:#000000;fill:#242424;fill-opacity:1;fill-rule:nonzero;stroke:none;stroke-width:7.5;marker:none;visibility:visible;display:inline;overflow:visible"
         width="15.714281"
         x="522.28571"
         y="614.99615" />
      <path
         d="m 537.96317,614.9821 0,202.61657 8.16678,-8.16678 0,-186.28302 -8.16678,-8.16677 z"
         id="path15458"
         sodipodi:nodetypes="ccccc"
         style="fill:#000000;fill-opacity:1;fill-rule:evenodd;stroke:none"
         inkscape:connector-curvature="0" />
    </g>
    <path
       d="m 547.28571,790.93361 1.42858,-150.71427 c 0,0 24.80283,22.41776 98.06736,89.77006 C 618.71134,753.10545 604.33578,759.55497 603,790.93361 l -55.71429,0 z"
       id="path20601"
       sodipodi:nodetypes="ccccc"
       style="opacity:0.24999994;color:#000000;fill:#000000;fill-opacity:1;fill-rule:nonzero;stroke:#000000;stroke-width:20.46628761;stroke-linecap:round;stroke-linejoin:miter;stroke-miterlimit:4;stroke-opacity:1;stroke-dasharray:none;stroke-dashoffset:0;marker:none;visibility:visible;display:inline;overflow:visible"
       transform="matrix(-1,0,0,1,822.486,-410)"
       inkscape:connector-curvature="0" />
    <path
       d="m 547.28571,790.93361 1.42858,-150.71427 143.57144,0 c -0.54681,34.57462 7.65996,45.98919 -45.50408,89.77006 C 618.71134,753.10545 604.33578,759.55497 603,790.93361 l -55.71429,0 z"
       id="path20607"
       sodipodi:nodetypes="ccsccc"
       style="opacity:0.24999994;color:#000000;fill:#000000;fill-opacity:1;fill-rule:nonzero;stroke:#000000;stroke-width:20.46628761;stroke-linecap:round;stroke-linejoin:miter;stroke-miterlimit:4;stroke-opacity:1;stroke-dasharray:none;stroke-dashoffset:0;marker:none;visibility:visible;display:inline;overflow:visible"
       transform="matrix(-1,0,0,1,822.486,-205)"
       inkscape:connector-curvature="0" />
    <path
       d="m 547.28571,790.93361 1.42858,-150.71427 143.57144,0 c -0.54681,34.57462 7.65996,45.98919 -45.50408,89.77006 C 618.71134,753.10545 604.33578,759.55497 603,790.93361 l -55.71429,0 z"
       id="path20609"
       sodipodi:nodetypes="ccsccc"
       style="opacity:0.24999994;color:#000000;fill:#000000;fill-opacity:1;fill-rule:nonzero;stroke:#000000;stroke-width:20.46628761;stroke-linecap:round;stroke-linejoin:miter;stroke-miterlimit:4;stroke-opacity:1;stroke-dasharray:none;stroke-dashoffset:0;marker:none;visibility:visible;display:inline;overflow:visible"
       transform="matrix(-1,0,0,1,822.486,0)"
       inkscape:connector-curvature="0" />
  </g>
  <polygon
     points="137.051,291.592 146.331,293.287 143.788,284.203 "
     id="polygon20-59"
     style="fill:#000000;fill-opacity:1;stroke-width:1"
     transform="matrix(0.90661594,4.6544734,-4.7751185,1.1216074,1734.4932,-760.78905)" />
  <rect
     style="fill:#000000;fill-opacity:1;stroke:#000000;stroke-width:19.99999809;stroke-miterlimit:4;stroke-opacity:1;stroke-dasharray:none"
     id="rect4661"
     width="158.91373"
     height="2.9648082"
     x="299.07379"
     y="225.88042" />
</svg>
